<svg xmlns="http://www.w3.org/2000/svg" viewBox="0 0 500 500"><g id="freepik--background-complete--inject-188"><rect y="382.4" width="500" height="0.25" style="fill:#ebebeb"></rect><rect x="416.78" y="398.49" width="33.12" height="0.25" style="fill:#ebebeb"></rect><rect x="322.53" y="401.21" width="8.69" height="0.25" style="fill:#ebebeb"></rect><rect x="396.59" y="389.21" width="19.19" height="0.25" style="fill:#ebebeb"></rect><rect x="52.46" y="390.89" width="43.19" height="0.25" style="fill:#ebebeb"></rect><rect x="104.56" y="390.89" width="6.33" height="0.25" style="fill:#ebebeb"></rect><rect x="131.47" y="395.11" width="93.68" height="0.25" style="fill:#ebebeb"></rect><path d="M237,337.8H43.91a5.71,5.71,0,0,1-5.7-5.71V60.66A5.71,5.71,0,0,1,43.91,55H237a5.71,5.71,0,0,1,5.71,5.71V332.09A5.71,5.71,0,0,1,237,337.8ZM43.91,55.2a5.46,5.46,0,0,0-5.45,5.46V332.09a5.46,5.46,0,0,0,5.45,5.46H237a5.47,5.47,0,0,0,5.46-5.46V60.66A5.47,5.47,0,0,0,237,55.2Z" style="fill:#ebebeb"></path><path d="M453.31,337.8H260.21a5.72,5.72,0,0,1-5.71-5.71V60.66A5.72,5.72,0,0,1,260.21,55h193.1A5.71,5.71,0,0,1,459,60.66V332.09A5.71,5.71,0,0,1,453.31,337.8ZM260.21,55.2a5.47,5.47,0,0,0-5.46,5.46V332.09a5.47,5.47,0,0,0,5.46,5.46h193.1a5.47,5.47,0,0,0,5.46-5.46V60.66a5.47,5.47,0,0,0-5.46-5.46Z" style="fill:#ebebeb"></path><path d="M213,186.89a7.72,7.72,0,0,0-4.32-1.31c-.88-1.19,0-2.87.93-4s2.14-2.4,1.87-3.85c-.42-2.2-3.45-2.43-5.66-2.11-.75-1.35-.65-3-1-4.5s-1.44-3.14-3-3-2.41,1.7-3.84,2c-1.66.31-3-1.21-4.25-2.37a5,5,0,0,0-.49-.4h0c.49-4.49,4.75-3.57,8.44-4,2.88-.33-4.33-7.92,1.54-10a5.09,5.09,0,0,0,2.88-1.8,3.29,3.29,0,0,0-1.07-4.06,7.72,7.72,0,0,0-4.32-1.31c-.88-1.19,0-2.87.93-4s2.15-2.4,1.87-3.85c-.41-2.2-3.44-2.43-5.66-2.11-.75-1.35-.65-3-1-4.5s-1.43-3.14-3-3-2.42,1.7-3.85,2c-1.66.31-3-1.21-4.25-2.37s-3.45-1.94-4.41-.55c-.57.84-.31,2-.91,2.87-1,1.42-3.25.4-4.61-.71s-3.56-2.16-4.62-.76a5.87,5.87,0,0,0-.62,1.48,4.31,4.31,0,0,1-.61,1c-.23-1-.27-2.11-.48-3.14-.32-1.51-1.44-3.13-3-3s-2.41,1.69-3.84,2c-1.66.3-3-1.22-4.25-2.37s-3.46-1.94-4.41-.55c-.58.83-.32,2-.91,2.87a1.66,1.66,0,0,1-.48.44,14.17,14.17,0,0,0-1.46-.16c-.88-1.19,0-2.87.93-4s2.15-2.39,1.87-3.85c-.41-2.2-3.44-2.42-5.66-2.11-.74-1.35-.65-3-1-4.5s-1.43-3.13-3-3-2.41,1.69-3.84,2c-1.67.3-3-1.22-4.25-2.37s-3.46-1.94-4.42-.55c-.57.83-.31,2-.9,2.87-1,1.42-3.26.4-4.62-.71s-3.56-2.16-4.62-.77a6.26,6.26,0,0,0-.62,1.48c-.76,1.89-2.88,2.75-4.56,3.91s-3.09,3.54-1.79,5.12c.64.77,1.82,1.13,2.11,2.09.36,1.21-.9,2.21-1.9,3a5.05,5.05,0,0,0-1.2,5.1,4.32,4.32,0,0,1-1.71.89c-1.66.31-3-1.22-4.25-2.37s-3.45-1.94-4.41-.55c-.57.84-.31,2.05-.91,2.87-1,1.42-3.25.4-4.61-.71s-3.56-2.16-4.62-.76a5.72,5.72,0,0,0-.62,1.48c-.76,1.89-2.89,2.75-4.57,3.9s-3.08,3.55-1.78,5.12c.61.75,1.71,1.11,2.06,2-1.12-.5-2.35-.57-3,.37s-.32,2.05-.91,2.87c-1,1.42-3.26.4-4.61-.71s-3.56-2.16-4.62-.76a5.87,5.87,0,0,0-.62,1.48c-.76,1.89-2.89,2.75-4.57,3.9s-3.08,3.55-1.78,5.12c.64.78,1.81,1.14,2.1,2.1.36,1.2-.9,2.2-1.89,3-1.66,1.28-2.15,5.32-.1,6.53.87.51,2.15.71,2.32,1.7s-.76,1.51-1.38,2.16a4.18,4.18,0,0,0,1,6.29c.49.26,1.1.49,1.26,1a2,2,0,0,1-.17,1.17,6.14,6.14,0,0,0-.32,2.25,1,1,0,0,0,.24.72,1.09,1.09,0,0,0,.66.22c3,.28,4.55-.72,6.28,2a2.26,2.26,0,0,0,.6.7,1.83,1.83,0,0,0,.83.25c2.08.28,3.51-1,5.43-1.11,2.67-.21,3.16,1.18,5.44,2.39,3.59,1.91,5.42.93,6.23-1.54a10.59,10.59,0,0,0,.44-2.15,3.74,3.74,0,0,1,1.41-2.82h.07c1.94.26,3.31-.79,5-1.06q.54,0,1.08-.06c2.06.08,2.68,1.31,4.74,2.4a7.4,7.4,0,0,0,3.1,1c.25,1.15-1,2.12-1.91,2.86-1.66,1.27-2.15,5.31-.1,6.52.87.51,2.15.72,2.32,1.7s-.76,1.52-1.38,2.16a4.18,4.18,0,0,0,1,6.29c.49.27,1.1.5,1.26,1a2,2,0,0,1-.17,1.17,6.09,6.09,0,0,0-.32,2.24,1.06,1.06,0,0,0,.24.72,1,1,0,0,0,.66.22c3,.29,4.55-.72,6.28,2a2.26,2.26,0,0,0,.6.7,2,2,0,0,0,.83.25c2.08.27,3.51-1,5.43-1.12,2.67-.2,3.16,1.19,5.44,2.4,3.59,1.9,5.42.93,6.23-1.54a10.55,10.55,0,0,0,.44-2.16c.48-4.49,4.75-3.56,8.44-4a.72.72,0,0,0,.62-.38l.23,0c2.08.27,3.51-1,5.43-1.11,2.66-.21,3.16,1.18,5.44,2.39,3.59,1.91,5.42.93,6.23-1.54a10,10,0,0,0,.43-2.16c.38-3.49,3.05-3.71,6-3.83a4,4,0,0,0,2,3.38c.49.26,1.1.49,1.26,1a2,2,0,0,1-.17,1.17,6.36,6.36,0,0,0-.32,2.25.82.82,0,0,0,.9.94c3,.28,4.56-.72,6.28,2a2.26,2.26,0,0,0,.6.7,1.87,1.87,0,0,0,.83.25c2.08.28,3.51-1,5.43-1.11,2.67-.21,3.16,1.18,5.45,2.39,3.58,1.91,5.42.93,6.23-1.54a11.35,11.35,0,0,0,.43-2.15c.49-4.49,4.75-3.57,8.44-4,2.88-.33-4.34-7.92,1.54-10a5,5,0,0,0,2.87-1.8A3.27,3.27,0,0,0,213,186.89Z" style="fill:#e0e0e0"></path><path d="M103.46,226.7a6.08,6.08,0,0,0-3.4-1c-.69-.93,0-2.26.73-3.14s1.69-1.89,1.48-3c-.33-1.74-2.72-1.91-4.46-1.66-.59-1.07-.52-2.36-.77-3.55s-1.12-2.47-2.34-2.38-1.9,1.33-3,1.54c-1.31.24-2.38-1-3.35-1.86s-2.72-1.53-3.48-.44c-.45.66-.24,1.62-.71,2.26-.81,1.12-2.56.32-3.63-.56s-2.8-1.7-3.64-.6a4.83,4.83,0,0,0-.49,1.17c-.6,1.49-2.27,2.16-3.59,3.07s-2.43,2.8-1.41,4c.51.61,1.43.9,1.66,1.65.29,1-.71,1.74-1.49,2.34-1.31,1-1.69,4.19-.07,5.14.67.4,1.69.57,1.82,1.34s-.6,1.2-1.09,1.7a3.31,3.31,0,0,0,.77,5c.39.21.87.39,1,.81a1.57,1.57,0,0,1-.14.92,5.06,5.06,0,0,0-.25,1.77.82.82,0,0,0,.19.57,1,1,0,0,0,.52.17c2.39.22,3.58-.57,4.94,1.59a1.82,1.82,0,0,0,.48.55,1.59,1.59,0,0,0,.65.2c1.64.21,2.76-.76,4.28-.88,2.1-.17,2.49.93,4.28,1.88,2.83,1.5,4.27.73,4.91-1.21a8.66,8.66,0,0,0,.34-1.7c.38-3.53,3.74-2.81,6.64-3.15,2.27-.27-3.41-6.24,1.22-7.85a4,4,0,0,0,2.26-1.42A2.59,2.59,0,0,0,103.46,226.7Z" style="fill:#e0e0e0"></path><path d="M132.6,384.14h18c1-18,4.61-98.29,1-133.88.23-1.12.48-2.4.75-3.89,2.46-14,16.61-34.58,19.4-37.86s10.91-13.67,10.91-13.67l-1.46-2.43-13,13,5.44-14.72,9.76-11.36L181.85,178l-9.11,9-.82-15-3.44-.17s3.73,17.32.43,23.68c0,0-13.68,27.41-20.53,33a6.12,6.12,0,0,0-1,1.12A68.33,68.33,0,0,0,140.44,215c2.91-6.5,9.16-20.82,11.43-28.47a154.5,154.5,0,0,0,4.22-18.2l-2.51-1.54s-7.12,29.67-17.82,42.27a39.89,39.89,0,0,0-9.71-7.21c-.61-4.07-.62-11.12,2.59-22l-1.9-1.93s-4.72,10.42-4.91,21.54a36.1,36.1,0,0,1-4.24-2.8c-9.37-7.29-15.6-20-15.6-20l-3.67-.17s9,20.59,20.24,27.22,18,21.79,18.4,25.7c.12,1.12-.2,12.83-.7,29-12.24-8.26-42.32-28.6-43.87-30l-.18,3.75L136,267.93C134.8,303.84,133,370.9,132.6,384.14Z" style="fill:#ebebeb"></path><path d="M131.47,99.92a3.79,3.79,0,0,0-3.79-3.79,3.55,3.55,0,0,0-1.09.16,9,9,0,0,0,.08-1.17,8.08,8.08,0,0,0-9.52-7.9,7,7,0,0,0-13,3.56H104a6.48,6.48,0,0,0,0,13h23.77A3.79,3.79,0,0,0,131.47,99.92Z" style="fill:#fafafa"></path><path d="M345.58,117.35h19.17a13,13,0,0,1-.08-1.4,12.62,12.62,0,0,1,12.62-12.62l.46,0a11.16,11.16,0,0,1,21.62,3.89v0a10.65,10.65,0,0,1,10.14,10.08h.5a5.61,5.61,0,1,1,0,11.22H345.58a5.61,5.61,0,1,1,0-11.22Z" style="fill:#fafafa"></path><path d="M236.43,127a23.31,23.31,0,0,1,39.79.33,12.46,12.46,0,0,1,15.89,12v0h6.61a6.26,6.26,0,0,1,0,12.51H275.93a23.33,23.33,0,0,1-36.4,3.82c-.39,0-.79.06-1.19.06A14.45,14.45,0,0,1,236.43,127Z" style="fill:#fafafa"></path><path d="M338.44,259.78l3.73,10.75,17.73,5.41L349,384.14h39.12c-.95-10.65-5.38-61-6.28-75.73l18-34.2h-3.59l-.75,1.18a55.06,55.06,0,0,1-10.07,11.92,24.08,24.08,0,0,1-4.73,3.42C379,286,376,222.87,376,222.87s-3.7,9-15.27,3.59l-1.05,40.3-11.53-2.36-11.23-22.15h-4.49l4,9.56-9.43-2.05L319,239.38l-2.83.69,7.32,11.24Z" style="fill:#ebebeb"></path><path d="M426.33,201.61a15,15,0,0,1,9.55,14.28,16.39,16.39,0,0,1-10,14.22,18.11,18.11,0,0,1-17.41-2.29c-.26,5.88-4.27,12.27-9.88,14.05a14.82,14.82,0,0,1-15.81-5c-15.11,9.49-68,13-77.32-27.42-1.92-8.35,2.73-17.2,9.55-22.38s15.48-7.32,24-8.36c8.07-12.85,26-19.87,41-17.85a40.74,40.74,0,0,1,32.8,27.91C428.14,188.87,426.55,202.64,426.33,201.61Z" style="fill:#e0e0e0"></path><path d="M407.66,281.15a8.1,8.1,0,0,1-14.48-2.28c-3.58,2.52-9.11,1.9-12.74-.56a10.87,10.87,0,0,1,4.69-19.78,13,13,0,0,1,6.09-9.89,14.12,14.12,0,0,1,12.08-1.27,14.8,14.8,0,0,1,12.86,4.12,11.69,11.69,0,0,1,3.76,9.07c-.29,3.37-2.75,6.6-6.06,7.24a9.93,9.93,0,0,1,.34,7.88C413.13,278.21,410.23,280.19,407.66,281.15Z" style="fill:#e0e0e0"></path><path d="M331.48,220a8.09,8.09,0,0,1,10.21,10.51c4.38.13,8.43,3.95,9.85,8.09a10.87,10.87,0,0,1-15.62,13,13,13,0,0,1-10.81,4.25,14.14,14.14,0,0,1-10.43-6.24,14.81,14.81,0,0,1-7.8-11,11.64,11.64,0,0,1,2.44-9.51c2.24-2.52,6.15-3.63,9.19-2.15a10,10,0,0,1,4.45-6.51C325.34,219.08,328.84,219.24,331.48,220Z" style="fill:#e6e6e6"></path></g><g id="freepik--Shadow--inject-188"><ellipse id="freepik--path--inject-188" cx="250" cy="416.24" rx="193.89" ry="11.32" style="fill:#f5f5f5"></ellipse></g><g id="freepik--Floor--inject-188"><path d="M285.63,382.45s-9-8-6.33-9.3,6,6,6.33,4.9-1.76-11.21,3.25-10.51,0,10.51,0,10.51,3.72-4,5-3.39-3.95,7.79-3.95,7.79Z" style="fill:#E5A55A"></path><path d="M364.78,383.68s2.44-8.17-2.49-9.8-7.87-5.45-7.7-9.77-5-8.53-8.93-4.48-3.38-3.11-8.57-4.86-9.6,2.49-8.18,6.35-3.7,6.27-9.84,3-12.9,2.69-11.6,7.37.24,5.19-3.65,3.63S293,378,295.43,383.68,364.78,383.68,364.78,383.68Z" style="fill:#E5A55A"></path><path d="M217.44,384.55c4.38-3,.44-8-3.95-8.62s-8.78-5.82-9-9.15-8.1-13.57-20.37-7.25-8.54.93-17.42-.84-14.47,3.33-10.58,7.16c0,0-8.91-1.51-12.59,4.14s0,9.15,0,9.15-16.77-.34-15.26,6.7S217.44,384.55,217.44,384.55Z" style="fill:#E5A55A"></path><path d="M396,381.06s-8-15.52-6-17,6,13,6,11.84-.22-20.86,3.46-20.08,0,19,0,19,4.94-9.28,6.88-8.58-5.72,11.74-5.72,11.74,4.57-2.76,5.72-2.55-5.72,5.72-5.72,5.72Z" style="fill:#E5A55A"></path><path d="M102.77,383s8-15.52,6-17-6,13-6,11.84.23-20.86-3.45-20.08,0,18.95,0,18.95-4.94-9.28-6.88-8.58,5.71,11.74,5.71,11.74-4.56-2.76-5.71-2.55S98.15,383,98.15,383Z" style="fill:#E5A55A"></path><path d="M64.61,379.82H435.39a1.89,1.89,0,0,1,1.89,1.89v17.12a0,0,0,0,1,0,0H62.72a0,0,0,0,1,0,0V381.71A1.89,1.89,0,0,1,64.61,379.82Z" style="fill:#263238"></path><path d="M64.61,379.82H435.39a1.89,1.89,0,0,1,1.89,1.89v17.12a0,0,0,0,1,0,0H62.72a0,0,0,0,1,0,0V381.71A1.89,1.89,0,0,1,64.61,379.82Z" style="fill:#fff;opacity:0.5"></path><rect x="410.91" y="383.62" width="24.53" height="12.88" style="fill:#fff;opacity:0.2"></rect><rect x="385.07" y="382.4" width="24.53" height="12.88" style="fill:#fff;opacity:0.2"></rect><rect x="368.05" y="387.09" width="15.97" height="8.19" style="fill:#fff;opacity:0.2"></rect><rect x="68.75" y="388.14" width="15.97" height="8.19" style="fill:#fff;opacity:0.2"></rect><rect x="349.99" y="382.99" width="16.79" height="11.21" style="fill:#fff;opacity:0.2"></rect><rect x="337.33" y="381.48" width="11.42" height="11.21" style="fill:#fff;opacity:0.2"></rect><rect x="86.57" y="383.62" width="11.42" height="11.21" style="fill:#fff;opacity:0.2"></rect><rect x="289.2" y="383.62" width="11.42" height="11.21" style="fill:#fff;opacity:0.2"></rect><rect x="301.2" y="381.48" width="11.42" height="7.75" style="fill:#fff;opacity:0.2"></rect><rect x="317.35" y="384.45" width="18.81" height="11.21" style="fill:#fff;opacity:0.2"></rect><rect x="269.1" y="382.99" width="18.81" height="11.21" style="fill:#fff;opacity:0.2"></rect><rect x="370.8" y="382.4" width="12.11" height="3.61" style="fill:#fff;opacity:0.2"></rect><rect x="68.75" y="382.65" width="12.11" height="3.61" style="fill:#fff;opacity:0.2"></rect><rect x="303.04" y="390.89" width="12.11" height="3.61" style="fill:#fff;opacity:0.2"></rect><rect x="242.91" y="383.62" width="24.53" height="12.88" style="fill:#fff;opacity:0.2"></rect><rect x="217.07" y="382.4" width="24.53" height="12.88" style="fill:#fff;opacity:0.2"></rect><rect x="200.05" y="387.09" width="15.97" height="8.19" style="fill:#fff;opacity:0.2"></rect><rect x="181.99" y="382.99" width="16.79" height="11.21" style="fill:#fff;opacity:0.2"></rect><rect x="169.33" y="381.48" width="11.42" height="11.21" style="fill:#fff;opacity:0.2"></rect><rect x="121.2" y="383.62" width="11.42" height="11.21" style="fill:#fff;opacity:0.2"></rect><rect x="133.2" y="381.48" width="11.42" height="7.75" style="fill:#fff;opacity:0.2"></rect><rect x="149.35" y="384.45" width="18.81" height="11.21" style="fill:#fff;opacity:0.2"></rect><rect x="101.1" y="382.99" width="18.81" height="11.21" style="fill:#fff;opacity:0.2"></rect><rect x="202.8" y="382.4" width="12.11" height="3.61" style="fill:#fff;opacity:0.2"></rect><rect x="135.04" y="390.89" width="12.11" height="3.61" style="fill:#fff;opacity:0.2"></rect></g><g id="freepik--Sign--inject-188"><rect x="178.09" y="202.34" width="9.74" height="177.48" style="fill:#263238"></rect><polygon points="187.83 379.82 180.09 379.82 180.09 249.45 187.83 253.45 187.83 379.82" style="fill:#fff;opacity:0.2"></polygon><rect x="139.64" y="185.4" width="86.64" height="56.68" style="fill:#E5A55A"></rect><path d="M223.28,239.08H142.64V188.4h80.64Zm-78.64-2h76.64V190.4H144.64Z" style="fill:#fff"></path><path d="M158.42,199.07a3.34,3.34,0,0,1,3.51-3.36,3.29,3.29,0,0,1,2.58,1.09l-.78.74a2.29,2.29,0,0,0-1.75-.77,2.3,2.3,0,1,0,0,4.59,2.29,2.29,0,0,0,1.75-.77l.78.75a3.3,3.3,0,0,1-2.59,1.09A3.33,3.33,0,0,1,158.42,199.07Z" style="fill:#fff"></path><path d="M165.68,195.8h1.21v5.51h3.42v1h-4.63Z" style="fill:#fff"></path><path d="M176.17,201.32v1h-4.9V195.8H176v1h-3.56v1.7h3.16v1h-3.16v1.81Z" style="fill:#fff"></path><path d="M181.76,200.82h-3.27l-.64,1.52H176.6l2.94-6.54h1.19l3,6.54h-1.27Zm-.4-.95L180.13,197l-1.23,2.86Z" style="fill:#fff"></path><path d="M190.32,195.8v6.54h-1l-3.61-4.43v4.43h-1.2V195.8h1l3.6,4.42V195.8Z" style="fill:#fff"></path><path d="M194.59,199.49V195.8h1.21v3.64c0,1.35.61,1.92,1.67,1.92s1.65-.57,1.65-1.92V195.8h1.19v3.69a2.86,2.86,0,1,1-5.72,0Z" style="fill:#fff"></path><path d="M207.48,198.12c0,1.44-1.06,2.33-2.78,2.33h-1.48v1.89H202V195.8h2.69C206.42,195.8,207.48,196.68,207.48,198.12Zm-1.22,0c0-.82-.55-1.29-1.62-1.29h-1.42v2.59h1.42C205.71,199.42,206.26,199,206.26,198.12Z" style="fill:#fff"></path><path d="M157,212h-3.27l-.64,1.52h-1.26l2.95-6.54H156l3,6.54h-1.27Zm-.4-.95-1.24-2.86-1.22,2.86Z" style="fill:#fff"></path><path d="M161,208v2h3.16v1H161v2.51h-1.21V207h4.77v1Z" style="fill:#fff"></path><path d="M167.08,208.05h-2.17v-1h5.55v1h-2.17v5.51h-1.21Z" style="fill:#fff"></path><path d="M176.27,212.54v1h-4.9V207h4.77v1h-3.56v1.7h3.16v1h-3.16v1.8Z" style="fill:#fff"></path><path d="M181.9,213.56l-1.34-1.92h-1.72v1.91h-1.22V207h2.69c1.72,0,2.78.88,2.78,2.32a2.09,2.09,0,0,1-1.39,2.07l1.51,2.15Zm-1.64-5.51h-1.42v2.6h1.42c1.06,0,1.61-.48,1.61-1.31S181.32,208.05,180.26,208.05Z" style="fill:#fff"></path><path d="M189.84,211.25v2.31h-1.21v-2.29L186.06,207h1.3l1.91,3.18L191.2,207h1.2Z" style="fill:#fff"></path><path d="M192.44,210.29a3.52,3.52,0,1,1,3.52,3.36A3.35,3.35,0,0,1,192.44,210.29Zm5.82,0a2.3,2.3,0,1,0-2.3,2.3A2.23,2.23,0,0,0,198.26,210.29Z" style="fill:#fff"></path><path d="M200.71,210.71V207h1.22v3.64c0,1.35.6,1.93,1.66,1.93s1.65-.58,1.65-1.93V207h1.2v3.69a2.87,2.87,0,1,1-5.73,0Z" style="fill:#fff"></path><path d="M212.41,213.56l-1.34-1.92h-1.72v1.91h-1.22V207h2.69c1.72,0,2.78.88,2.78,2.32a2.09,2.09,0,0,1-1.39,2.07l1.51,2.15Zm-1.64-5.51h-1.42v2.6h1.42c1.06,0,1.61-.48,1.61-1.31S211.83,208.05,210.77,208.05Z" style="fill:#fff"></path><path d="M162.49,217.69h5.72c4.13,0,6.95,2.48,6.95,6.3s-2.82,6.3-6.95,6.3h-5.72Zm5.58,10.21c2.5,0,4.14-1.5,4.14-3.91s-1.64-3.91-4.14-3.91H165.4v7.82Z" style="fill:#fff"></path><path d="M176.56,224c0-3.74,2.92-6.52,6.9-6.52s6.89,2.76,6.89,6.52-2.93,6.52-6.89,6.52S176.56,227.74,176.56,224Zm10.84,0a3.95,3.95,0,1,0-3.94,4A3.84,3.84,0,0,0,187.4,224Z" style="fill:#fff"></path><path d="M201.06,223.79h2.67v5.12a8.75,8.75,0,0,1-5.1,1.6c-4,0-6.88-2.72-6.88-6.52s2.92-6.52,6.94-6.52a6.72,6.72,0,0,1,5.27,2.18l-1.87,1.73a4.27,4.27,0,0,0-3.26-1.42,4,4,0,1,0,0,8.06,4.58,4.58,0,0,0,2.27-.54Z" style="fill:#fff"></path></g><g id="freepik--trash-bin--inject-188"><path d="M206,311.64a2.29,2.29,0,0,1-.51-.06l-11.32-2.64a2.24,2.24,0,0,1,1-4.37l11.32,2.64a2.24,2.24,0,0,1-.51,4.43Z" style="fill:#E5A55A"></path><g style="opacity:0.5"><path d="M206,311.64a2.29,2.29,0,0,1-.51-.06l-11.32-2.64a2.24,2.24,0,0,1,1-4.37l11.32,2.64a2.24,2.24,0,0,1-.51,4.43Z" style="fill:#fff"></path></g><path d="M268.74,311.64a2.22,2.22,0,0,0,.51-.06l11.32-2.64a2.24,2.24,0,0,0-1-4.37l-11.33,2.64a2.24,2.24,0,0,0,.51,4.43Z" style="fill:#E5A55A"></path><g style="opacity:0.5"><path d="M268.74,311.64a2.22,2.22,0,0,0,.51-.06l11.32-2.64a2.24,2.24,0,0,0-1-4.37l-11.33,2.64a2.24,2.24,0,0,0,.51,4.43Z" style="fill:#fff"></path></g><path d="M249.05,299.25H225.73V292a4.12,4.12,0,0,1,4.11-4.12h15.09a4.13,4.13,0,0,1,4.12,4.12ZM228,297h18.84v-5a1.88,1.88,0,0,0-1.88-1.87H229.84A1.87,1.87,0,0,0,228,292Z" style="fill:#E5A55A"></path><g style="opacity:0.7000000000000001"><path d="M249.05,299.25H225.73V292a4.12,4.12,0,0,1,4.11-4.12h15.09a4.13,4.13,0,0,1,4.12,4.12ZM228,297h18.84v-5a1.88,1.88,0,0,0-1.88-1.87H229.84A1.87,1.87,0,0,0,228,292Z" style="fill:#fff"></path></g><rect x="211.04" y="369.15" width="52.7" height="10.67" style="fill:#E5A55A"></rect><rect x="211.04" y="369.15" width="52.7" height="10.67" style="fill:#fff;opacity:0.5"></rect><polygon points="265.37 376.5 209.41 376.5 203.83 301.87 270.94 301.87 265.37 376.5" style="fill:#E5A55A"></polygon><polygon points="265.37 376.5 209.41 376.5 203.83 301.87 270.94 301.87 265.37 376.5" style="fill:#fff;opacity:0.7000000000000001"></polygon><g style="opacity:0.1"><path d="M214.12,309.4a2.9,2.9,0,0,0-2.64,3.31l3.31,55.9a2.64,2.64,0,0,0,2.58,2.49,2.33,2.33,0,0,0,2.33-2.49l-2.59-55.9A3.28,3.28,0,0,0,214.12,309.4Z"></path><path d="M225.76,309.4a3,3,0,0,0-2.73,3.31l1.83,55.9a2.56,2.56,0,0,0,2.52,2.49,2.4,2.4,0,0,0,2.39-2.49l-1.11-55.9A3.19,3.19,0,0,0,225.76,309.4Z"></path><path d="M237.39,309.4a3.08,3.08,0,0,0-2.82,3.31l.36,55.9a2.46,2.46,0,1,0,4.91,0l.36-55.9A3.08,3.08,0,0,0,237.39,309.4Z"></path><path d="M249,309.4a3.18,3.18,0,0,0-2.9,3.31L245,368.61a2.4,2.4,0,0,0,2.38,2.49,2.56,2.56,0,0,0,2.52-2.49l1.84-55.9A3,3,0,0,0,249,309.4Z"></path><path d="M260.65,309.4a3.3,3.3,0,0,0-3,3.31l-2.58,55.9a2.32,2.32,0,0,0,2.32,2.49,2.65,2.65,0,0,0,2.59-2.49l3.3-55.9A2.89,2.89,0,0,0,260.65,309.4Z"></path></g><path d="M273.36,304.1h-72l2-7.24a2.6,2.6,0,0,1,2.51-1.92h63a2.6,2.6,0,0,1,2.51,1.92Z" style="fill:#E5A55A"></path><path d="M273.36,304.1h-72l2-7.24a2.6,2.6,0,0,1,2.51-1.92h63a2.6,2.6,0,0,1,2.51,1.92Z" style="fill:#fff;opacity:0.5"></path></g><g id="freepik--Poop--inject-188"><path d="M219.16,414.2a4.6,4.6,0,0,0,2.28,2.19H244s2.38-2.27,1.46-4.6h0c-.39-1-1.38-2-3.4-2.83a4.3,4.3,0,0,0-1-4,8.89,8.89,0,0,0-4.19-2.44v0a3.69,3.69,0,0,0-.35-3.1,4.12,4.12,0,0,0-.35-.54,13.1,13.1,0,0,0-5.35-4.45c3.07,5.74-4.54,2.77-2,7.61,0,0-7.18,1.29-4.91,5.94,0,0-3.06.41-4.15,1.68A4.48,4.48,0,0,0,219.16,414.2Z" style="fill:#E5A55A"></path><path d="M226.58,408.32s9.57,5.13,15.47.63a4.3,4.3,0,0,0-1-4S240.33,410.38,226.58,408.32Z" style="opacity:0.2"></path><path d="M229.94,402.18s4.36,2.77,6.93.29v0a3.69,3.69,0,0,0-.35-3.1C235.79,400.92,234.05,402.7,229.94,402.18Z" style="opacity:0.2"></path><path d="M219.16,414.2a4.6,4.6,0,0,0,2.28,2.19H244s2.38-2.27,1.46-4.6c-.44,3.25-7.08,4.13-17.42,4.13C223,415.92,220.46,415.07,219.16,414.2Z" style="opacity:0.2"></path></g><g id="freepik--Dog--inject-188"><path d="M160.84,389.67l-28.41-5.51,3.24,9.83a21.39,21.39,0,0,0-6.63-1.43c-5-.41-11.42,0-14.36,4.61l1-.68a5.29,5.29,0,0,0-.77,6.17l.15-.73c2.05,6.58,12.05,8.25,20,8.53,0,0-11,.14-12.61,3.19s2.53,2.73,7.49,2.73h20c3.2,0,2.88-1.94,2.88-1.94s10.25,1.91,11.89-9.33C165.14,402.13,163.43,396.24,160.84,389.67Z" style="fill:#E5A55A"></path><path d="M160.84,389.67l-28.41-5.51,3.24,9.83a21.39,21.39,0,0,0-6.63-1.43c-5-.41-11.42,0-14.36,4.61l1-.68a5.29,5.29,0,0,0-.77,6.17l.15-.73c2.05,6.58,12.05,8.25,20,8.53,0,0-11,.14-12.61,3.19s2.53,2.73,7.49,2.73h20c3.2,0,2.88-1.94,2.88-1.94s10.25,1.91,11.89-9.33C165.14,402.13,163.43,396.24,160.84,389.67Z" style="fill:#fff;opacity:0.6000000000000001"></path><path d="M130.88,307.93c8.27-3.67,16.9,14.5,16.91,17.16s-3.3,9.26-6.79,10.57S130.88,307.93,130.88,307.93Z" style="fill:#263238"></path><path d="M179.25,403.6c10.32,6.22,25.67-15.37,10.8-32,0,0,10.23,1.6,12.31,11.84l1.12-4.32s7.36,13.18,0,21.78l4.32-1.15s-10,21.69-32.51,11.67Z" style="fill:#E5A55A"></path><path d="M207.8,399.75h0c-.25.53-10.32,21.55-32.51,11.66l4-7.82a7.44,7.44,0,0,0,4.83,1c9.39-1.14,18.62-18.89,6-33,0,0,10.23,1.6,12.31,11.84l1.13-4.32s7.35,13.17,0,21.78Z" style="fill:#fff;opacity:0.6000000000000001"></path><path d="M207.8,399.76c-.25.53-10.32,21.55-32.51,11.66l4-7.82a7.44,7.44,0,0,0,4.83,1,12.39,12.39,0,0,1,1.22,6.74S199.81,412.46,207.8,399.76Z" style="opacity:0.1"></path><path d="M116.52,365.54s9.62,44.92,9.29,45.72-7.35.85-6.16,5.13h11.89s1.44-1.45,0-4.81c-1-2.28,0-23.23,0-23.23s.59-9.87.05-14.82C131.26,370.53,116.52,365.54,116.52,365.54Z" style="fill:#E5A55A"></path><path d="M116.52,365.54s9.62,44.92,9.29,45.72-7.35.85-6.16,5.13h11.89s1.44-1.45,0-4.81c-1-2.28,0-23.23,0-23.23s.59-9.87.05-14.82C131.26,370.53,116.52,365.54,116.52,365.54Z" style="fill:#fff;opacity:0.6000000000000001"></path><path d="M116.52,365.54s9.62,44.92,9.29,45.72-7.35.85-6.16,5.13h11.89s1.44-1.45,0-4.81c-1-2.28,0-23.23,0-23.23s.59-9.87.05-14.82C131.26,370.53,116.52,365.54,116.52,365.54Z" style="opacity:0.1"></path><path d="M122,371.6s7.8,38.86,7.47,39.66-7.35.85-6.16,5.13h11.89s1.44-1.45,0-4.81c-1-2.28,0-23.23,0-23.23a14.8,14.8,0,0,0,1.87-8.75C136.72,376.6,122,371.6,122,371.6Z" style="fill:#E5A55A"></path><path d="M122,371.6s7.8,38.86,7.47,39.66-7.35.85-6.16,5.13h11.89s1.44-1.45,0-4.81c-1-2.28,0-23.23,0-23.23a14.8,14.8,0,0,0,1.87-8.75C136.72,376.6,122,371.6,122,371.6Z" style="fill:#fff;opacity:0.6000000000000001"></path><path d="M112.11,352.9s-1.06,6.56.7,12l1.82-2.72a28.08,28.08,0,0,0,3.78,10.76l.71-2.42c.15.26.3.51.46.76,9,14.3,14.62,45.11,14.62,45.11h21L179.91,392c-4.58-12.32-13-28.18-16.33-31.58-14.42-14.9-25.37-11-26.47-32l-17-4.53s-7,11.12-7.77,22.5A27.63,27.63,0,0,0,111,355Z" style="fill:#E5A55A"></path><path d="M179.91,392l-24.72,24.44h-21s-5.6-30.81-14.63-45.11c-.16-.25-.31-.5-.46-.76l-.71,2.42a28.08,28.08,0,0,1-3.78-10.76l-1.82,2.71c-1.75-5.43-.69-12-.69-12L111,355a27.68,27.68,0,0,1,1.37-8.66c.75-11.38,7.77-22.5,7.77-22.5l7.27,1.93,9.73,2.59a32.5,32.5,0,0,0,1.94,10.39c3.93,9.83,13.14,9.88,24.52,21.64C166.87,363.77,175.33,379.63,179.91,392Z" style="fill:#fff;opacity:0.6000000000000001"></path><path d="M133.9,337.06l1.43,1.43c-12.63-2.4-15.56-10.24-15.56-10.24l7.62-2.5,9.73,2.59a32.5,32.5,0,0,0,1.94,10.39A49.46,49.46,0,0,0,133.9,337.06Z" style="opacity:0.1"></path><path d="M151,325.32c1.54-3.28,1.23-6.5.09-6.93-3.27-1.2-8.87-1.83-9.65-2.71s-1.56-3.72-4.76-6a6.7,6.7,0,0,0-2.32-.91,3.69,3.69,0,0,0,1.36-4s-1.35,2.19-3.31,2.39a1.51,1.51,0,0,0,.56-1.31s-2.22,1.87-6.6,1.31c-5.36-.67-9.87,2.08-10.21,5.18l1.65.64c-1.87,3.23-5.62,11.37.87,16,8.21,5.86,16.76,5.44,24.72,2.84l.19-.07-.1.45a9.18,9.18,0,0,0,4.22-1.9l-.48,1.56a10.45,10.45,0,0,0,3.13-4.15v.63a5.71,5.71,0,0,0,.75-3.22Z" style="fill:#E5A55A"></path><path d="M151,325.32c1.54-3.28,1.23-6.5.09-6.93-3.27-1.2-8.87-1.83-9.65-2.71s-1.56-3.72-4.76-6a6.7,6.7,0,0,0-2.32-.91,3.69,3.69,0,0,0,1.36-4s-1.35,2.19-3.31,2.39a1.51,1.51,0,0,0,.56-1.31s-2.22,1.87-6.6,1.31c-5.36-.67-9.87,2.08-10.21,5.18l1.65.64c-1.87,3.23-5.62,11.37.87,16,8.21,5.86,16.76,5.44,24.72,2.84l.19-.07-.1.45a9.18,9.18,0,0,0,4.22-1.9l-.48,1.56a10.45,10.45,0,0,0,3.13-4.15v.63a5.71,5.71,0,0,0,.75-3.22Z" style="fill:#fff;opacity:0.6000000000000001"></path><path d="M120.66,308.29c-8.8-2.12-14,17.31-13.55,19.93s4.92,8.51,8.6,9.17S120.66,308.29,120.66,308.29Z" style="fill:#263238"></path><path d="M131.78,317c0,.93-.47,1.68-1,1.68s-1-.75-1-1.68.46-1.68,1-1.68S131.78,316.07,131.78,317Z" style="fill:#263238"></path><path d="M140.31,315.1c.2.9-.09,1.74-.66,1.86s-1.17-.51-1.37-1.41.09-1.74.65-1.87S140.11,314.19,140.31,315.1Z" style="fill:#263238"></path><path d="M147.1,320.12a3.45,3.45,0,0,1,3.52-1.63c1.2.43-.4,3.39-.4,3.39S146.7,321.56,147.1,320.12Z" style="fill:#263238"></path><path d="M144.3,328.18a.15.15,0,0,1-.15-.14.16.16,0,0,1,.14-.16c2.22-.12,3.82-.82,4.75-2.09a6.3,6.3,0,0,0,.79-4.76.15.15,0,0,1,.11-.18.16.16,0,0,1,.19.11,6.5,6.5,0,0,1-.84,5c-1,1.35-2.67,2.1-5,2.22Z" style="fill:#263238"></path><path d="M150.14,325.31H150a.62.62,0,0,1-.42-.48.15.15,0,0,1,.1-.19.16.16,0,0,1,.19.1c0,.11.09.25.19.27s.46-.2.57-.33a.16.16,0,0,1,.23.21A1.3,1.3,0,0,1,150.14,325.31Z" style="fill:#263238"></path><path d="M140.32,376.6a24.31,24.31,0,0,1-.59,7.56l-1.09-1.36a9.34,9.34,0,0,1-3.48,6.39L135,394a7.72,7.72,0,0,0-3.64,7.2c.38,3.63,3.86,5.89,3.86,5.89l.33,5.38s1,2.58-.33,3.93h14.76l3.93-22.4a20.37,20.37,0,0,0-14.14-3.48S143.44,383.56,140.32,376.6Z" style="opacity:0.1"></path><path d="M179,389.67l-28.41-5.51,3.24,9.83a21.39,21.39,0,0,0-6.63-1.43c-5.05-.41-11.42,0-14.36,4.61l1-.68a5.29,5.29,0,0,0-.77,6.17l.15-.73c2,6.58,12.06,8.25,20,8.53,0,0-11,.14-12.61,3.19s2.54,2.73,7.49,2.73h20c3.2,0,2.88-1.94,2.88-1.94s10.25,1.91,11.89-9.33C183.34,402.13,181.64,396.24,179,389.67Z" style="fill:#E5A55A"></path><path d="M179,389.67l-28.41-5.51,3.24,9.83a21.39,21.39,0,0,0-6.63-1.43c-5.05-.41-11.42,0-14.36,4.61l1-.68a5.29,5.29,0,0,0-.77,6.17l.15-.73c2,6.58,12.06,8.25,20,8.53,0,0-11,.14-12.61,3.19s2.54,2.73,7.49,2.73h20c3.2,0,2.88-1.94,2.88-1.94s10.25,1.91,11.89-9.33C183.34,402.13,181.64,396.24,179,389.67Z" style="fill:#fff;opacity:0.6000000000000001"></path><path d="M113.73,339a24.1,24.1,0,0,0,24.83-1.49.14.14,0,0,1,.2,0l1,2.2a.26.26,0,0,1-.05.3c-1.3,1.32-12.22,11.64-26.78,2.47a.65.65,0,0,1-.29-.7l.63-2.64A.31.31,0,0,1,113.73,339Z" style="fill:#E5A55A"></path><rect x="119.26" y="344.42" width="5.44" height="5.44" rx="1.5" transform="translate(281.18 15.41) rotate(45)" style="fill:#fff"></rect></g><g id="freepik--Character--inject-188"><path d="M349.87,264.24s-.43,7.38-4,20.32a204,204,0,0,1-8.23,23.53c-1.8,4.33-3.86,8.92-6.23,13.75-1.06,2.2-2.2,4.44-3.4,6.74-1.39,39.18-23.37,79-23.37,79-1.22.63-5.47-.06-5.44-1.3,3.25-5.17,9.66-55.37,13.79-79.18.25-3.24.62-6.71,1.08-10.29,1.21-9.61,3-20.07,4.73-29.26,2.73-14.48,5.33-25.84,5.33-25.84l7.25.71Z" style="fill:#e4897b"></path><path d="M358.51,318.47h0q-.87,6.31-2.26,13.52c7.85,26.21-8.29,77.35-8.29,77.35-2.74.53-5.16.18-6.38-.74,3-15.4.85-55.47-1.51-79.41-.22-2.17-.48-4.56-.77-7.11-.49-4.31-1.07-9.08-1.69-14-1-8.24-2.21-16.9-3.27-24.58-1.29-9.28-2.42-17.14-3-21.08l-.39-2.72,22.68,2.45s5.76,6.47,6.63,26.66A164.76,164.76,0,0,1,358.51,318.47Z" style="fill:#e4897b"></path><path d="M315,309.48c6.38,2.29,15.5,4.52,19.58,5.48,1.08-2.36,2.07-4.66,3-6.88.31,2.45.61,4.85.88,7.19,8.83-1,15.78-2,20.77-2.79a154.49,154.49,0,0,0,1-23.66,72.74,72.74,0,0,0-14.44-4.26,59.41,59.41,0,0,0-11.5-1.05,34.4,34.4,0,0,0-7.86.95,28.57,28.57,0,0,0-7.71,3.1C317.46,294.45,316.13,302.06,315,309.48Z" style="opacity:0.2"></path><path d="M323.68,259.71h30.11l.81,3.88s10.55,16,5.77,46.3l-22.76,3.36-.38-3-1.14,3-22-5.65s4.09-31.84,9.44-44.64Z" style="fill:#263238"></path><path d="M323.68,259.71h30.11l.81,3.88s10.55,16,5.77,46.3l-22.76,3.36-.38-3-1.14,3-22-5.65s4.09-31.84,9.44-44.64Z" style="fill:#fff;isolation:isolate;opacity:0.2"></path><path d="M337,408.14a.75.75,0,0,1-.2-.84.82.82,0,0,1,.42-.55,3.2,3.2,0,0,1,1.78-.21c-.65-.34-1.22-.76-1.25-1.17s.15-.5.51-.68a1.24,1.24,0,0,1,1,0c1.09.44,1.78,2.28,1.81,2.36a.38.38,0,0,1,0,.1h0s0,0,0,.05h0a.18.18,0,0,1,0,.07.1.1,0,0,1-.05,0h0a10,10,0,0,1-3.31,1A1.08,1.08,0,0,1,337,408.14Zm.43-1a.45.45,0,0,0-.22.28c-.08.32,0,.4.05.42.38.31,1.84-.15,3-.66A5.24,5.24,0,0,0,337.42,407.11Zm1-2c-.11.05-.29.16-.28.27,0,.35,1.17,1,2.35,1.39a3.48,3.48,0,0,0-1.39-1.69.85.85,0,0,0-.31-.06A.84.84,0,0,0,338.44,405.07Z" style="fill:#E5A55A"></path><path d="M349.84,406.28c0-.65-8,0-8,0s-4.84,5-9.58,6.21-2,4,3.26,3.94l13.16-.16C352.47,416.19,350.07,413,349.84,406.28Z" style="fill:#263238"></path><path d="M293.87,408.14a.77.77,0,0,1-.2-.84.88.88,0,0,1,.42-.55,3.22,3.22,0,0,1,1.78-.21c-.65-.34-1.22-.76-1.25-1.17s.16-.5.52-.68a1.23,1.23,0,0,1,1,0c1.08.44,1.77,2.28,1.8,2.36a.18.18,0,0,1,0,.1h0a.09.09,0,0,1,0,.05h0a.18.18,0,0,1-.05.07.1.1,0,0,1-.05,0h0a10.15,10.15,0,0,1-3.32,1A1.09,1.09,0,0,1,293.87,408.14Zm.43-1a.49.49,0,0,0-.22.28c-.08.32,0,.4.06.42.37.31,1.83-.15,3-.66A5.28,5.28,0,0,0,294.3,407.11Zm1-2c-.11.05-.29.16-.28.27,0,.35,1.17,1,2.35,1.39A3.41,3.41,0,0,0,296,405a.91.91,0,0,0-.32-.06A.87.87,0,0,0,295.32,405.07Z" style="fill:#E5A55A"></path><path d="M306.72,406.28c0-.65-8,0-8,0s-4.83,5-9.58,6.21-2.05,4,3.27,3.94l13.15-.16C309.36,416.19,307,413,306.72,406.28Z" style="fill:#263238"></path><polygon points="361.61 307.6 337.23 310.26 337.61 313.9 361.61 311.15 361.61 307.6" style="fill:#263238"></polygon><polygon points="337.23 310.26 336.26 313.65 313.38 307.81 314.03 304.1 337.23 310.26" style="fill:#263238"></polygon><path d="M337.23,310.26l-.75-10.87c-3.45-3.82-4.81-10-4.81-10S331.21,303.36,337.23,310.26Z" style="opacity:0.1"></path><path d="M332.26,227.23c-4.41,7.09-10,13.69-17.65,17.47-9.73,5.07-17-17.37-19.27-24a2.33,2.33,0,0,1,4.23-1.88,161.89,161.89,0,0,0,9.82,15.34,12.23,12.23,0,0,0,3.07,3.1s0-.05-.21-.1a2.49,2.49,0,0,0-1.72.15l.06,0c5.69-3.56,9.91-9.35,13.65-14.85,3.37-5.12,10.95-.56,8,4.82Z" style="fill:#dc897c"></path><path d="M315.22,223.93c.43,1.91,3.23,4.73,6.08,7.18,3.26,2.79,6.59,5.1,6.59,5.1a50.94,50.94,0,0,0,3.41-4.51c2.93-4.35,6.51-10.93,5-15.58C330.15,214.41,324.77,218,315.22,223.93Z" style="fill:#E5A55A"></path><path d="M321.3,231.11c3.26,2.79,6.59,5.1,6.59,5.1a50.94,50.94,0,0,0,3.41-4.51C331.19,226.76,327,224,327,224A14.23,14.23,0,0,0,321.3,231.11Z" style="opacity:0.2"></path><path d="M362.53,226.26c-.49,1.4-.95,2.76-1.38,4.06-1.42,4.27-2.56,8-3.47,11.41C355,251.49,354.32,258,354.4,264l-30.81-1.77c-.31-10.09-.39-16.14-.27-22.28a93.74,93.74,0,0,1,.77-12.56c.39-4.4,3.36-9.2,7.4-11.09a8.31,8.31,0,0,1,3-.81c1.52-.12,3.1-.23,4.63-.27a99.63,99.63,0,0,1,14,.8c1.33.14,2.61.32,3.83.52a6.17,6.17,0,0,1,.77.17A7.2,7.2,0,0,1,362.53,226.26Z" style="fill:#E5A55A"></path><path d="M353,200.24c-1.47,4.43-3.45,12.6-.69,15.77,0,0-4.23-.89-13.61,4.19-2.4-3.91-.39-5-.39-5,5.18-.91,5.55-4.63,5.13-8.16Z" style="fill:#e4897b"></path><path d="M349.11,203l-5.65,4a13.91,13.91,0,0,1,.1,2.49c2-.16,4.87-2.11,5.34-4.09A6.63,6.63,0,0,0,349.11,203Z" style="opacity:0.2"></path><path d="M353.91,176.75c14.21,2.68,14.73,28.64-1.94,27.1S331.58,172.54,353.91,176.75Z" style="fill:#263238"></path><path d="M357.38,191.42c-1.79,7.2-2.39,10.27-6.74,13.52-6.54,4.88-15,1.62-15.35-5.84-.35-6.72,2.63-17.35,10.26-19.32A9.49,9.49,0,0,1,357.38,191.42Z" style="fill:#e4897b"></path><path d="M347.62,176.24c-5.39.54-12.79,6.29-5.79,7.08.15,2.21,4.2,2,7.08.65-.33,1.65,2.59,4.7,6.22,3.5-2.06,1.28-1.89,6.84.7,7s8.1,1.31,6.7-7.75S353.38,175.66,347.62,176.24Z" style="fill:#263238"></path><path d="M348,192.1c-.12.61-.54,1.06-.93,1s-.61-.59-.49-1.2.54-1.06.94-1S348.15,191.49,348,192.1Z" style="fill:#263238"></path><path d="M340.42,190.86c-.13.61-.55,1.06-.94,1s-.61-.59-.48-1.2.54-1.06.93-1S340.54,190.25,340.42,190.86Z" style="fill:#263238"></path><path d="M340.1,189.72l-1.36-.61S339.25,190.35,340.1,189.72Z" style="fill:#263238"></path><path d="M342.48,192.51a18.23,18.23,0,0,1-2.93,3.61,2.45,2.45,0,0,0,2.05.69Z" style="fill:#de5753"></path><path d="M344.6,199.52a6.07,6.07,0,0,1-1-.05.17.17,0,0,1-.14-.2.19.19,0,0,1,.22-.15,5.15,5.15,0,0,0,4.25-1.38.18.18,0,0,1,.26,0,.17.17,0,0,1,0,.25A5.4,5.4,0,0,1,344.6,199.52Z" style="fill:#263238"></path><path d="M358.67,197.71a5.92,5.92,0,0,1-4,2.21c-2,.19-2.53-1.84-1.58-3.68.86-1.65,2.94-3.73,4.76-3.07S359.92,196.15,358.67,197.71Z" style="fill:#e4897b"></path><path d="M349.92,188.43a.34.34,0,0,1-.24-.13,2.69,2.69,0,0,0-2.3-1,.33.33,0,0,1-.39-.3.4.4,0,0,1,.34-.41,3.3,3.3,0,0,1,2.92,1.28.37.37,0,0,1-.07.51A.41.41,0,0,1,349.92,188.43Z" style="fill:#263238"></path><path d="M338.1,186.43a.33.33,0,0,1-.25-.08.35.35,0,0,1,0-.5,3.81,3.81,0,0,1,3.07-1.41.33.33,0,0,1,.29.39.4.4,0,0,1-.42.33,3,3,0,0,0-2.41,1.14A.41.41,0,0,1,338.1,186.43Z" style="fill:#263238"></path><path d="M347.7,191l-1.35-.61S346.85,191.59,347.7,191Z" style="fill:#263238"></path><path d="M357.69,216.74a76.75,76.75,0,0,1-7.19,4.15h0c-.63.31-1.28.62-1.94.91-3.77,1.7-7.78,2.92-10.77,2.36a7.19,7.19,0,0,1-5.18-3.38,6.48,6.48,0,0,1-.58-1.26,9.93,9.93,0,0,1-.53-3.2,8.31,8.31,0,0,1,3-.81c.34,0,.67-.06,1-.07s.88-.07,1.33-.1c.76,0,1.53-.08,2.29-.1a99.58,99.58,0,0,1,14,.8l.3,0,1,.13c.85.1,1.69.23,2.49.36A6.17,6.17,0,0,1,357.69,216.74Z" style="fill:#e4897b"></path><path d="M354.43,216.21a25.43,25.43,0,0,0-3.93,4.68h0c-.63.31-1.28.62-1.94.91a21.11,21.11,0,0,1,4.84-5.73Z" style="fill:#263238"></path><path d="M336.81,215.35a27.26,27.26,0,0,0-4.21,5.44,6.48,6.48,0,0,1-.58-1.26,20.69,20.69,0,0,1,3.46-4.08C335.92,215.4,336.36,215.38,336.81,215.35Z" style="fill:#263238"></path><path d="M354.43,216.21a25.43,25.43,0,0,0-3.93,4.68h0c-.63.31-1.28.62-1.94.91a21.11,21.11,0,0,1,4.84-5.73Z" style="fill:#fff;opacity:0.2"></path><path d="M336.81,215.35a27.26,27.26,0,0,0-4.21,5.44,6.48,6.48,0,0,1-.58-1.26,20.69,20.69,0,0,1,3.46-4.08C335.92,215.4,336.36,215.38,336.81,215.35Z" style="fill:#fff;opacity:0.2"></path><path d="M361.32,182.75A10.25,10.25,0,0,1,372.56,178c8,1.73,9.67,10,5.58,16.63s-4.35,12-.13,14.87-.26,6.47-2.24,3.84c0,0,2.51,3.7-2.64,2.31s-5.67-4.82-5.67-4.82-.6,2.39-2.67-.65,1.49-15.61,3.2-19.08-5.36-3.66-5.36-3.66Z" style="fill:#263238"></path><path d="M295.32,216.75h-.18A3.7,3.7,0,0,1,293,210a.88.88,0,0,0,.39-.74v-7.41a.89.89,0,0,0-.34-.71l-.15-.12a2,2,0,0,1-.78-1.62v-3.48h1.15v3.48a.92.92,0,0,0,.34.71l.16.12a2.08,2.08,0,0,1,.78,1.62v7.41a2,2,0,0,1-.89,1.69,2.54,2.54,0,0,0,1.44,4.63h.18a2.54,2.54,0,0,0,1.44-4.63,2,2,0,0,1-.89-1.69v-7.41a2,2,0,0,1,.78-1.62l.15-.12a.9.9,0,0,0,.35-.71v-3.48h1.15v3.48a2,2,0,0,1-.78,1.62l-.15.12a.9.9,0,0,0-.35.71v7.41a.91.91,0,0,0,.39.74,3.7,3.7,0,0,1-2.09,6.74Z" style="fill:#E5A55A"></path><rect x="294.8" y="196.23" width="0.87" height="14.9" style="fill:#263238"></rect><path d="M295.23,215.31a2.42,2.42,0,1,1,2.42-2.42A2.42,2.42,0,0,1,295.23,215.31Zm0-4a1.56,1.56,0,1,0,1.55,1.55A1.55,1.55,0,0,0,295.23,211.34Z" style="fill:#263238"></path><path d="M301.81,187.46h-4.44L293,196a4.75,4.75,0,0,0,2.25.51H299l.86,0a4.79,4.79,0,0,0,1.95-9.07Z" style="fill:#263238"></path><path d="M301.81,187.46h-4.44L293,196a4.75,4.75,0,0,0,2.25.51H299l.86,0a4.79,4.79,0,0,0,1.95-9.07Z" style="fill:#fff;opacity:0.2"></path><path d="M301.81,187.46,297.48,196a4.81,4.81,0,0,0,4.33-8.58Z" style="fill:#fff;opacity:0.2"></path><path d="M289.46,187.46h4.44l4.33,8.58a4.75,4.75,0,0,1-2.25.51h-3.71l-.87,0a4.79,4.79,0,0,1-1.94-9.07Z" style="fill:#263238"></path><path d="M289.46,187.46h4.44l4.33,8.58a4.75,4.75,0,0,1-2.25.51h-3.71l-.87,0a4.79,4.79,0,0,1-1.94-9.07Z" style="fill:#fff;opacity:0.2"></path><path d="M293.9,187.46l4.33,8.58a4.81,4.81,0,0,1-4.33-8.58Z" style="fill:#fff;opacity:0.2"></path><path d="M298.58,195.93a.87.87,0,1,1-.86-1A.95.95,0,0,1,298.58,195.93Z" style="fill:#E5A55A"></path><path d="M298.58,195.93a.68.68,0,0,1-.61.72.67.67,0,0,1-.61-.72.68.68,0,0,1,.61-.73A.68.68,0,0,1,298.58,195.93Z" style="fill:#fff;opacity:0.2"></path><rect x="293.1" y="203.24" width="4.25" height="4.25" rx="0.34" style="fill:#E5A55A"></rect><path d="M291.64,214.69l-.18,2a2.35,2.35,0,0,0,.82,2L295,221a4.37,4.37,0,0,0,3.91.91l.85-.21c.51-3.31-1.38-7.26-1.38-7.26l-.41-1.19a1.94,1.94,0,0,0-2.46-1.26l-2.36.78A2.23,2.23,0,0,0,291.64,214.69Z" style="fill:#e4897b"></path><path d="M338.72,250s-12,7.18-16.49,14c0,0,1.4.64,2.28.91s-1,2.11,0,5.14,4.05,6.2,2.47,10.95a20,20,0,0,0-.68,9.23s11.36-3.17,14.66-7.52,3.63-5.41,3.63-5.41-3.5-7.75-4.16-13.3S341.09,251.83,338.72,250Z" style="fill:#E5A55A"></path><path d="M338.72,250s-12,7.18-16.49,14c0,0,1.4.64,2.28.91s-1,2.11,0,5.14,4.05,6.2,2.47,10.95a20,20,0,0,0-.68,9.23s11.36-3.17,14.66-7.52,3.63-5.41,3.63-5.41-3.5-7.75-4.16-13.3S341.09,251.83,338.72,250Z" style="fill:#fff;opacity:0.7000000000000001"></path><path d="M361.15,230.32c-1.42,4.27-2.56,8-3.47,11.41-4.17-5.11-1.62-15-1.62-15S358.35,228.19,361.15,230.32Z" style="opacity:0.2"></path><path d="M336.63,251.41l1.66-1.6a2.68,2.68,0,0,1,2.35-.7l4,.75a5,5,0,0,1,3.62,2.82l.42.91c-2.58,2.83-7.45,4-7.45,4l-1.35.49a2.24,2.24,0,0,1-2.9-1.29l-1-2.66A2.57,2.57,0,0,1,336.63,251.41Z" style="fill:#e4897b"></path><path d="M362.69,219.72C369,227.09,381.5,245,374,254.37c-5.65,5.61-21.3,2.05-28.24.39a2.33,2.33,0,0,1,.63-4.58c4.73.09,9.56.13,14.13-.15,2.68-.23,5.2-.36,7.29-1.32.23-.11.28-.24,0,0a1.87,1.87,0,0,0-.33.43l0,.11c0-.09.07-.25.08-.39.45-7.15-7.75-17.48-12.08-23.13-3.64-4.84,3.09-10.45,7.19-6Z" style="fill:#dc897c"></path><path d="M360.61,217.14c4.41,1.39,9.4,6,12.43,12.45-1.68,6.14-12.36,10.1-12.36,10.1s-5.17-8.54-6.51-17A5,5,0,0,1,360.61,217.14Z" style="fill:#E5A55A"></path></g></svg>
