<svg width="39" height="38" viewBox="0 0 39 38" fill="none" xmlns="http://www.w3.org/2000/svg">
<g id="paw">
<path id="Vector" d="M14.1671 5.30251C16.035 5.04294 18.0136 7.01264 18.5835 9.73052C19.1533 12.4331 18.1244 14.8456 16.2566 15.1205C14.4046 15.3953 12.4101 13.4256 11.8244 10.7077C11.2387 8.00512 12.2993 5.59262 14.1671 5.30251ZM25.485 5.30251C27.3687 5.59262 28.4134 8.00512 27.8594 10.7077C27.2579 13.4256 25.2793 15.3953 23.4114 15.1205C21.5277 14.8456 20.4988 12.4331 21.0845 9.73052C21.6544 7.01264 23.633 5.04294 25.485 5.30251ZM5.69848 12.3262C7.50302 11.5781 9.95655 12.937 11.2387 15.3037C12.4417 17.7162 12.0302 20.2509 10.2415 20.999C8.45277 21.7472 6.01507 20.4035 4.76456 18.0063C3.51405 15.6091 3.95727 13.0592 5.69848 12.3262ZM34.1911 12.3262C35.9323 13.0592 36.3756 15.6091 35.125 18.0063C33.8745 20.4035 31.4368 21.7472 29.6481 20.999C27.8594 20.2509 27.4479 17.7162 28.6509 15.3037C29.9331 12.937 32.3866 11.5781 34.1911 12.3262ZM31.5476 28.7862C31.611 30.2215 30.4713 31.8095 29.1099 32.405C26.2765 33.657 22.9207 31.0613 19.7707 31.0613C16.6207 31.0613 13.2332 33.7639 10.4473 32.405C8.86433 31.6568 7.77211 29.6718 7.97789 28.0228C8.26282 25.7477 11.0963 24.5262 12.7742 22.8619C15.0061 20.7089 16.589 16.6626 19.7707 16.6626C22.9365 16.6626 24.6144 20.6479 26.7514 22.8619C28.5084 24.7247 31.4368 26.2974 31.5476 28.7862Z" fill="#876445"/>
</g>
</svg>
