<svg xmlns="http://www.w3.org/2000/svg" viewBox="0 0 500 500"><g id="freepik--background-complete--inject-111"><g><g><g><path d="M443.92,330.198h-180.746c-3.232,0-5.862-2.63-5.862-5.862V61.062c0-3.232,2.63-5.862,5.862-5.862h180.746c3.232,0,5.862,2.629,5.862,5.862V324.335c0,3.233-2.63,5.862-5.862,5.862ZM263.174,55.45c-3.095,0-5.612,2.518-5.612,5.612V324.335c0,3.095,2.518,5.612,5.612,5.612h180.746c3.095,0,5.612-2.517,5.612-5.612V61.062c0-3.094-2.518-5.612-5.612-5.612h-180.746Z" style="fill:#e0e0e0;"></path><path d="M235.493,330.198H54.746c-3.232,0-5.862-2.63-5.862-5.862V61.062c0-3.232,2.629-5.862,5.862-5.862H235.493c3.232,0,5.862,2.629,5.862,5.862V324.335c0,3.233-2.63,5.862-5.862,5.862ZM54.746,55.45c-3.094,0-5.612,2.518-5.612,5.612V324.335c0,3.095,2.518,5.612,5.612,5.612H235.493c3.095,0,5.612-2.517,5.612-5.612V61.062c0-3.094-2.518-5.612-5.612-5.612H54.746Z" style="fill:#e0e0e0;"></path></g><rect x="0" y="391.267" width="500" height=".25" style="fill:#e0e0e0;"></rect></g><rect x="51.672" y="405.531" width="16.06" height=".25" style="fill:#e0e0e0;"></rect><rect x="170.352" y="402.821" width="53.53" height=".25" style="fill:#e0e0e0;"></rect><rect x="68.732" y="414.821" width="36.25" height=".25" style="fill:#e0e0e0;"></rect><rect x="378.352" y="402.691" width="43.19" height=".25" style="fill:#e0e0e0;"></rect><rect x="430.452" y="402.691" width="6.33" height=".25" style="fill:#e0e0e0;"></rect><rect x="316.212" y="408.921" width="53.89" height=".25" style="fill:#e0e0e0;"></rect></g><path d="M135.942,235.945c-3.282-2.48-8.072-2.761-11.622-.682-4.712-9.522-17.843-13.724-27.208-8.707-2.443-10.261-12.553-18.147-23.099-18.021-10.547,.127-20.463,8.255-22.659,18.571-.349,1.64-.58,3.436-1.752,4.633-1.905,1.946-5.085,1.293-7.8,1.081-8.541-.666-17.136,5.33-19.458,13.577l117.625-.428c1.03-3.983-.743-7.544-4.025-10.024Z" style="fill:#ebebeb;"></path><path d="M330.389,272.804c-3.312-2.502-8.144-2.786-11.727-.688-4.754-9.608-18.004-13.848-27.453-8.786-2.465-10.353-12.666-18.311-23.307-18.183-10.642,.128-20.648,8.329-22.863,18.739-.352,1.654-.585,3.467-1.768,4.675-1.922,1.963-5.131,1.304-7.871,1.091-8.618-.672-17.29,5.378-19.634,13.699l118.685-.432c1.039-4.019-.75-7.612-4.062-10.115Z" style="fill:#ebebeb;"></path><path d="M146.344,388.61c-3.312-2.502-8.144-2.786-11.726-.688-4.755-9.608-18.004-13.848-27.453-8.786-2.465-10.353-12.666-18.311-23.307-18.183-10.642,.128-20.648,8.329-22.863,18.739-.352,1.654-.585,3.467-1.768,4.675-1.922,1.963-5.131,1.304-7.871,1.091-8.618-.672-17.29,5.378-19.634,13.699l118.686-.432c1.039-4.019-.75-7.612-4.062-10.115Z" style="fill:#ebebeb;"></path><path d="M476.49,172.389c-3.312-2.502-8.144-2.786-11.727-.688-4.755-9.608-18.004-13.848-27.453-8.786-2.465-10.353-12.666-18.311-23.307-18.183-10.642,.128-20.648,8.329-22.863,18.739-.352,1.654-.585,3.467-1.768,4.675-1.922,1.963-5.131,1.304-7.871,1.091-8.618-.672-17.29,5.378-19.634,13.699l118.686-.432c1.039-4.019-.75-7.612-4.062-10.115Z" style="fill:#ebebeb;"></path><path d="M458.019,59.728c-1.656-1.251-4.072-1.393-5.863-.344-2.377-4.804-9.002-6.924-13.727-4.393-1.232-5.177-6.333-9.155-11.654-9.092-5.321,.064-10.324,4.164-11.432,9.369-.176,.827-.293,1.733-.884,2.338-.961,.982-2.566,.652-3.935,.545-4.309-.336-8.645,2.689-9.817,6.85l59.343-.216c.52-2.009-.375-3.806-2.031-5.057Z" style="fill:#ebebeb;"></path><path d="M464.148,327.506c-1.656-1.251-4.072-1.393-5.863-.344-2.377-4.804-9.002-6.924-13.727-4.393-1.232-5.176-6.333-9.155-11.654-9.092-5.321,.064-10.324,4.165-11.432,9.369-.176,.827-.292,1.733-.884,2.338-.961,.982-2.566,.652-3.935,.545-4.309-.336-8.645,2.689-9.817,6.85l59.343-.216c.52-2.009-.375-3.806-2.031-5.057Z" style="fill:#ebebeb;"></path><path d="M97.557,82.163c-1.656-1.251-4.072-1.393-5.863-.344-2.377-4.804-9.002-6.924-13.727-4.393-1.233-5.177-6.333-9.155-11.654-9.092-5.321,.064-10.324,4.165-11.432,9.369-.176,.827-.293,1.733-.884,2.338-.961,.982-2.566,.652-3.935,.545-4.309-.336-8.645,2.689-9.817,6.85l59.343-.216c.52-2.009-.375-3.806-2.031-5.057Z" style="fill:#ebebeb;"></path><path d="M361.386,376.591c-2.426-1.833-5.966-2.041-8.59-.504-3.483-7.038-13.188-10.144-20.11-6.436-1.806-7.584-9.278-13.413-17.073-13.319-7.796,.094-15.125,6.101-16.748,13.727-.258,1.212-.429,2.539-1.295,3.425-1.408,1.438-3.759,.956-5.765,.799-6.313-.493-12.665,3.94-14.382,10.035l86.94-.316c.761-2.944-.549-5.576-2.975-7.409Z" style="fill:#ebebeb;"></path><path d="M245.291,446.208c-1.656-1.251-4.072-1.393-5.863-.344-2.377-4.804-9.002-6.924-13.727-4.393-1.232-5.177-6.333-9.155-11.654-9.092-5.321,.064-10.324,4.165-11.432,9.369-.176,.827-.292,1.733-.884,2.338-.961,.982-2.566,.652-3.935,.545-4.309-.336-8.645,2.689-9.817,6.85l59.343-.216c.52-2.009-.375-3.806-2.031-5.057Z" style="fill:#ebebeb;"></path><path d="M336.696,106.873c-3.312-2.502-8.144-2.786-11.727-.688-4.754-9.608-18.004-13.848-27.453-8.786-2.465-10.353-12.666-18.311-23.308-18.183-10.642,.128-20.648,8.329-22.863,18.739-.352,1.654-.585,3.467-1.768,4.675-1.922,1.963-5.131,1.304-7.871,1.091-8.618-.672-17.29,5.378-19.634,13.699l118.686-.432c1.039-4.019-.75-7.612-4.062-10.115Z" style="fill:#ebebeb;"></path></g><g id="freepik--Shadow--inject-111"><path d="M440.364,473.95c0,2.843-79.235,5.148-176.977,5.148s-176.977-2.305-176.977-5.148,79.235-5.148,176.977-5.148,176.977,2.305,176.977,5.148Z" style="fill:#f5f5f5;"></path></g><g id="freepik--Cat--inject-111"><g><g><g><path d="M295.811,228.288c6.648,13.142,15.567,24.986,25.531,35.786,5.031,5.453,10.332,10.653,15.785,15.682,5.64,5.201,11.531,10.191,16.49,16.074,5.433,6.447,9.72,14.238,10.211,22.801,.055,.96,1.555,.966,1.5,0-.891-15.553-12.72-26.836-23.537-36.65-11.226-10.184-22.032-20.895-31.195-33.009-5.103-6.746-9.67-13.892-13.49-21.443-.436-.862-1.73-.103-1.295,.757h0Z" style="fill:#263238;"></path><g><path d="M300.832,162.295c-15.107-22.857-39.471-27.613-57.686-15.57-18.215,12.043-23.375,36.32-8.329,59.179,14.472,21.873,43.617,36.499,62.039,27.122-.342,2.205,.147,4.459,1.37,6.325l8.477-5.619c-1.234-1.858-3.119-3.188-5.284-3.727,15.924-13.295,13.884-45.838-.587-67.711Z" style="fill:#E5A55A;"></path><path d="M300.832,162.295c-15.107-22.857-39.471-27.613-57.686-15.57-18.215,12.043-23.375,36.32-8.329,59.179,14.472,21.873,43.617,36.499,62.039,27.122-.342,2.205,.147,4.459,1.37,6.325l8.477-5.619c-1.234-1.858-3.119-3.188-5.284-3.727,15.924-13.295,13.884-45.838-.587-67.711Z" style="fill:#fff; opacity:.3;"></path><path d="M296.944,233.868c-.183,.005-.362-.053-.508-.164-.38-.269-.47-.795-.201-1.176l.002-.003c.269-.37,2.712-3.745,5.356-3.368,.466,.067,.792,.494,.734,.961-.066,.461-.493,.781-.954,.715h-.007c-1.393-.197-3.213,1.911-3.751,2.672-.153,.221-.402,.356-.671,.363Z" style="fill:#263238;"></path></g></g><g><path d="M357.969,333.88c4.142-7.732,4.53-16.775,3.686-25.335-.545-5.533-1.694-10.972-2.656-16.441-.753-4.281-1.451-8.576-2.373-12.825-2.161-9.964-5.864-19.505-10.036-28.783-4.866-10.824-10.371-21.445-13.804-32.846-3.709-12.319-5.01-25.82-.25-38.044,.351-.9-1.099-1.29-1.446-.399-8.579,22.029,1.75,45.138,11.004,65.073,4.624,9.962,9.133,20.033,11.953,30.681,1.056,3.988,1.835,8.038,2.553,12.099,.916,5.179,1.93,10.348,2.771,15.539,1.628,10.045,2.265,21.26-2.698,30.524-.456,.851,.839,1.609,1.295,.757h0Z" style="fill:#263238;"></path><g><path d="M394.689,118.358c7.491-33.46-9.374-59.553-36.042-65.518-26.668-5.965-53.033,10.458-60.578,43.866-7.154,32.034,4.961,71.005,29.407,79.47-2.284,1.606-3.892,4.003-4.512,6.726l12.425,2.764c.603-2.726,.165-5.579-1.228-7.999,25.808,2.814,53.374-27.275,60.529-59.31Z" style="fill:#E5A55A;"></path><path d="M326.793,176.985c-.163-.161-.266-.373-.292-.6-.088-.576,.309-1.114,.885-1.202h.005c.568-.079,5.729-.807,7.686,1.903,.344,.478,.242,1.143-.229,1.496-.473,.341-1.133,.234-1.473-.239l-.005-.007c-1.032-1.426-4.513-1.236-5.666-1.061-.332,.054-.67-.053-.91-.29Z" style="fill:#263238;"></path></g><g style="opacity:.3;"><path d="M361.136,63.088c-.362-.519-.922-.859-1.474-1.167-6.543-3.651-10.756-6.165-20.963-2.957-9.577,4.528-18.097,11.272-24.703,19.552-2.243,2.812-4.322,5.926-4.908,9.474-.586,3.549,.679,7.616,3.809,9.387,2.444,1.382,5.469,1.141,8.214,.55,7.718-1.661,14.695-5.697,21.37-9.913,8.43-5.324,17.319-12.077,19.007-21.904,.176-1.027,.243-2.169-.353-3.023Z" style="fill:#fff;"></path></g></g><g><g><path d="M385.658,238.16c.054,5.386-1.091,10.64-2.33,15.852-1.267,5.329-2.545,10.655-3.817,15.982-2.571,10.762-5.141,21.524-7.712,32.287-.67,2.805-1.287,5.628-2.034,8.413-.691,2.577-1.61,5.116-3.381,7.159-.63,.726,.427,1.792,1.061,1.061,3.101-3.577,3.922-8.37,4.989-12.836,1.334-5.583,2.667-11.167,4.001-16.75,2.629-11.005,5.257-22.01,7.886-33.015,1.425-5.967,2.9-11.978,2.838-18.154-.01-.965-1.51-.967-1.5,0h0Z" style="fill:#263238;"></path><g><g><path d="M435.209,208.961c5.869-26.762-7.697-47.552-29.027-52.226-21.33-4.674-42.339,8.541-48.251,35.262-5.605,25.621,4.212,56.718,23.774,63.398-1.82,1.291-3.096,3.212-3.582,5.39l9.938,2.165c.473-2.18,.113-4.459-1.009-6.387,20.631,2.158,42.553-21.98,48.158-47.601Z" style="fill:#E5A55A;"></path><path d="M381.162,256.043c-.131-.128-.214-.297-.236-.479-.072-.46,.243-.892,.703-.964h.004c.453-.066,4.575-.665,6.148,1.494,.276,.381,.198,.912-.177,1.196-.377,.274-.904,.19-1.178-.186l-.004-.006c-.83-1.136-3.61-.972-4.531-.828-.265,.044-.536-.04-.728-.228Z" style="fill:#263238;"></path></g><path d="M435.209,208.961c5.869-26.762-7.697-47.552-29.027-52.226-21.33-4.674-42.339,8.541-48.251,35.262-5.605,25.621,4.212,56.718,23.774,63.398-1.82,1.291-3.096,3.212-3.582,5.39l9.938,2.165c.473-2.18,.113-4.459-1.009-6.387,20.631,2.158,42.553-21.98,48.158-47.601Z" style="opacity:.3;"></path></g></g><path d="M426.596,163.255c4.033,3.168,7.281,7.197,9.444,11.853,2.363,5.086,3.392,10.677,4.236,16.183,.146,.951,1.591,.547,1.446-.399-.865-5.651-1.963-11.324-4.387-16.542-2.209-4.755-5.56-8.921-9.679-12.157-.751-.59-1.82,.465-1.061,1.061h0Z" style="fill:#E5A55A;"></path></g></g><path d="M332.574,287.548c0,.609-.275,1.102-.614,1.102s-.615-.494-.615-1.102,.275-1.102,.615-1.102,.614,.493,.614,1.102Z" style="fill:#fff;"></path><path d="M312.153,286.551c0,.609-.275,1.102-.614,1.102s-.614-.493-.614-1.102,.275-1.102,.614-1.102,.614,.494,.614,1.102Z" style="fill:#fff;"></path><g><g><path d="M358.715,384.551c-.104-6.079-1.386-12.396-5.191-17.139l-19.111,8.751c-3.279,3.432-5.872,7.717-6.42,12.432-.549,4.715,1.248,9.855,5.185,12.508-1.856,1.805-3.419,10.472-4.158,12.953-.738,2.481-.581,5.293,.769,7.501,.751,1.229,2.02,2.304,3.458,2.225,1.655-.091,2.818-1.597,3.817-2.919,5.238-6.931,12.202-18.867,17.733-25.567,1.414-1.714,2.757-3.555,3.398-5.682,.492-1.631,.549-3.36,.52-5.063Z" style="fill:#263238;"></path><path d="M358.719,384.556c-.102-6.079-1.382-12.397-5.185-17.141l-19.114,8.745c-3.28,3.431-5.874,7.715-6.424,12.43-.55,4.715,1.245,9.856,5.181,12.51-1.857,1.804-3.422,10.471-4.162,12.952-.739,2.481-.583,5.293,.767,7.502,.751,1.229,2.019,2.305,3.457,2.226,1.655-.091,2.818-1.596,3.818-2.918,5.24-6.929,12.209-18.863,17.741-25.562,1.415-1.713,2.758-3.554,3.4-5.681,.492-1.631,.55-3.36,.521-5.063Z" style="fill:#fff;"></path><path d="M358.719,384.556c-.102-6.079-1.382-12.397-5.185-17.141l-19.114,8.745c-3.28,3.431-5.874,7.715-6.424,12.43-.55,4.715,1.245,9.856,5.181,12.51-1.857,1.804-3.422,10.471-4.162,12.952-.739,2.481-.583,5.293,.767,7.502,.751,1.229,2.019,2.305,3.457,2.226,1.655-.091,2.818-1.596,3.818-2.918,5.24-6.929,12.209-18.863,17.741-25.562,1.415-1.713,2.758-3.554,3.4-5.681,.492-1.631,.55-3.36,.521-5.063Z"></path></g><path d="M401.861,414.44c-2.495-4.812-5.543-9.331-7.83-14.246-3.507-7.538-5.145-15.937-4.729-24.24l-10.568,9.213c.72,5.191,2.41,10.246,4.957,14.826,4.842,8.707,12.869,16.064,14.395,25.909,.487,3.141,.255,6.39-.673,9.43-1.639,5.373-5.754,10.178-11.175,11.652-5.421,1.474-11.937-1.064-14.12-6.24-.79-1.872-1.044-4.019-2.314-5.605-1.211-1.511-3.316-2.266-5.199-1.811-1.883,.455-3.427,2.123-3.678,4.043-.114,.869,.017,1.75,.188,2.609,.512,2.572,1.408,5.119,3.03,7.179,2.935,3.729,7.846,5.366,12.573,5.789,6.958,.622,14.202-1.075,19.825-5.219,5.623-4.144,9.46-10.813,9.641-17.796,.14-5.418-1.827-10.682-4.322-15.493Z" style="fill:#263238;"></path><path d="M367.141,301.936c-.147-.336,36.79,77.353,10.847,88.472-25.911,11.106-49.011,9.471-49.704-28.422-.473-25.873-9.877-31.956-12.385-52.316-.961-7.804,18.835-26.946,33.841-27.311,5.002-.122,17.402,19.577,17.402,19.577Z" style="fill:#263238;"></path><path d="M331.293,335.21s-1.264-8.059,2.015-11.557c3.279-3.497,10.546-3.168,11.705,1.093s4.074,11.667,4.074,11.667c0,0,11.792,16.531,10.903,27.46-.889,10.93-7.922,19.782-13.422,19.454s-13.725-4.481-15.514-14.208c-1.79-9.727-.806-25.794-.697-26.121,.109-.328,.936-7.788,.936-7.788Z" style="fill:#fff; isolation:isolate; opacity:.2;"></path><path d="M324.399,333.091s37.069,10.07,46.078-23.677l6.998,18.119s-3.24,15.2-21.583,19.593c-27.428,6.568-29.056,.262-29.056,.262l-2.437-14.297Z" style="fill:#E5A55A;"></path><path d="M318.156,320.146c-3.074,6.834-8.225,30.089-12.014,36.871-4.631,6.867-2.867,10.199,3.41,9.994,6.277-.205,10.703-7.088,9.907-10.325-.796-3.237,12.657-23.315,10.239-29.718-1.835-4.851-7.911-9.996-11.542-6.822Z" style="fill:#263238;"></path><path d="M318.156,320.146c-3.074,6.834-8.225,30.089-12.014,36.871-4.631,6.867-2.867,10.199,3.41,9.994,6.277-.205,10.703-7.088,9.907-10.325-.796-3.237,12.657-23.315,10.239-29.718-1.835-4.851-7.911-9.996-11.542-6.822Z" style="fill:#fff; isolation:isolate; opacity:.2;"></path><path d="M310.001,367.412c-.084,0-.166-.024-.236-.071-1.181-.874-.614-4.158,.236-6.095,.065-.208,.286-.323,.494-.257,.207,.065,.323,.286,.257,.494-.009,.027-.02,.054-.034,.079-.929,2.142-1.063,4.725-.48,5.143,.174,.13,.209,.377,.079,.551-.074,.099-.191,.158-.315,.158Z"></path><path d="M305.512,366.806c-.114-.001-.222-.049-.299-.134-.929-1.047-.087-4.339,1.236-6.206,.126-.178,.373-.221,.551-.094,.178,.126,.221,.373,.094,.551-1.252,1.756-1.835,4.615-1.292,5.229,.152,.149,.155,.394,.006,.546l-.006,.006c-.078,.074-.184,.111-.291,.102Z"></path><path d="M349.679,321.355c-1.28,7.384-6.078,27.987-8.064,35.497-2.78,7.802,5.341,13.793,11.37,12.036,6.029-1.757,8.607-9.524,7.032-12.462-1.574-2.938,3.123-26.812-.809-32.413-2.982-4.243-6.801-6.634-9.529-2.658Z" style="isolation:isolate; opacity:.2;"></path><path d="M346.914,318.275c-1.28,7.384-.493,31.189-2.479,38.699-2.78,7.802-.243,10.591,5.786,8.834s8.607-9.524,7.032-12.462c-1.574-2.938,6.469-25.729,2.536-31.33-2.982-4.243-10.146-7.717-12.875-3.741Z" style="fill:#263238;"></path><path d="M346.914,318.275c-1.28,7.384-.493,31.189-2.479,38.699-2.78,7.802-.243,10.591,5.786,8.834s8.607-9.524,7.032-12.462c-1.574-2.938,6.469-25.729,2.536-31.33-2.982-4.243-10.146-7.717-12.875-3.741Z" style="fill:#fff; isolation:isolate; opacity:.2;"></path><path d="M350.754,366.085c-.081,.022-.167,.018-.246-.01-1.361-.553-1.628-3.875-1.285-5.963,.012-.217,.197-.384,.414-.372,.217,.012,.384,.197,.372,.414-.002,.029-.006,.057-.014,.085-.368,2.306,.144,4.841,.812,5.101,.201,.083,.296,.314,.213,.514-.047,.114-.146,.2-.266,.231Z"></path><path d="M346.255,366.613c-.111,.027-.228,.007-.323-.055-1.16-.784-1.162-4.182-.344-6.318,.078-.204,.306-.306,.511-.228,.204,.078,.306,.306,.228,.51-.777,2.012-.631,4.926,.048,5.386,.184,.107,.248,.343,.141,.527l-.004,.007c-.057,.091-.151,.154-.257,.172Z"></path><g style="isolation:isolate; opacity:.2;"><path d="M389.279,390.354c.492-1.631,.549-3.36,.52-5.063-.104-6.079-1.386-12.396-5.191-17.139l-19.111,8.751c-3.279,3.433-5.872,7.717-6.42,12.432,0,0-.983,6.751-.794,6.729,.189-.022,30.997-5.71,30.997-5.71Z"></path></g><path d="M390.809,384.551c-.104-6.079-1.386-12.396-5.191-17.139l-19.111,8.751c-3.279,3.432-5.872,7.717-6.42,12.432-.549,4.715,1.248,9.855,5.185,12.508-1.856,1.805-3.419,10.472-4.158,12.953-.738,2.481-.581,5.293,.769,7.501,.751,1.229,2.02,2.304,3.458,2.225,1.655-.091,2.818-1.597,3.817-2.919,5.238-6.931,12.202-18.867,17.733-25.567,1.414-1.714,2.757-3.555,3.398-5.682,.492-1.631,.549-3.36,.52-5.063Z" style="fill:#263238;"></path><g style="isolation:isolate; opacity:.2;"><path d="M390.809,384.551c-.104-6.079-1.386-12.396-5.191-17.139l-19.111,8.751c-3.279,3.432-5.872,7.717-6.42,12.432-.549,4.715,1.248,9.855,5.185,12.508-1.856,1.805-3.419,10.472-4.158,12.953-.738,2.481-.581,5.293,.769,7.501,.751,1.229,2.02,2.304,3.458,2.225,1.655-.091,2.818-1.597,3.817-2.919,5.238-6.931,12.202-18.867,17.733-25.567,1.414-1.714,2.757-3.555,3.398-5.682,.492-1.631,.549-3.36,.52-5.063Z" style="fill:#fff;"></path></g><path d="M355.815,279.28c4.699-15.617-4.931-31.363-4.931-31.363-7.187,3.161-13.385,8.207-17.938,14.603-4.337-.191-8.68-.132-13.01,.177-2.396-4.022-8.948-13.192-19.409-14.309,0,0-4.337,19.204,1.65,29.013-1.809,2.902-3.437,5.913-4.874,9.015-3.037,6.798,2.072,15.438,5.794,20.131s13.754,10.123,23.223,10.252c13.825,.177,28.115-11.088,30.746-16.936,1.352-3.084,1.925-12.126-1.251-20.583Z" style="fill:#263238;"></path><path d="M328.356,316.569c-.684,.064-1.369,.128-2.053,.192-6.499-.089-12.796-2.278-17.949-6.239-1.752-2.604-2.428-5.785-1.887-8.877l.386,1.058c-.368-1.525,.014-3.133,1.027-4.33l.215,2.299s.543-7.411,6.67-5.836l4.222,.295c6.37-1.535,10.211,7.211,10.211,7.211l.379-2.068s4.287,2.79,5.05,6.9l1.47-.854s-.688,7.815-7.742,10.248Z" style="fill:#fff; isolation:isolate; opacity:.2;"></path><path d="M355.815,279.28c4.699-15.617-4.931-31.363-4.931-31.363-7.187,3.161-13.385,8.207-17.938,14.603-4.337-.191-8.68-.132-13.01,.177-2.396-4.022-8.948-13.192-19.409-14.309,0,0-4.337,19.204,1.65,29.013-1.809,2.902-3.437,5.913-4.874,9.015-3.037,6.798,2.072,15.438,5.794,20.131s13.754,10.123,23.223,10.252c13.825,.177,28.115-11.088,30.746-16.936,1.352-3.084,1.925-12.126-1.251-20.583Z" style="fill:#fff; isolation:isolate; opacity:.2;"></path><path d="M334.481,287.148c.009,2.604-1.391,4.755-3.123,4.761-1.732,.006-3.167-2.1-3.178-4.718-.011-2.617,1.378-4.754,3.122-4.774,1.744-.02,3.168,2.113,3.179,4.731Z" style="fill:#263238;"></path><path d="M313.947,286.16c-.378,2.641-2.08,4.494-3.808,4.265-1.728-.229-2.845-2.56-2.424-5.153,.421-2.593,2.093-4.495,3.808-4.265,1.715,.23,2.806,2.564,2.424,5.153Z" style="fill:#263238;"></path><path d="M313.033,294.842c1.514-1.149,3.622-1.098,5.079,.123,.947,.654-2.275,3.522-2.275,3.522,0,0-3.464-2.489-2.804-3.645Z" style="fill:#263238;"></path><path d="M323.255,305.648c-2.841,.266-6.867-1.128-7.507-2.124-.84-1.315-.662-6.373-.691-7.374,.02-.282,.257-.499,.54-.493,.285,.014,.506,.255,.494,.54-.094,2.197-.053,5.971,.452,6.771,.505,.799,5.438,2.422,7.737,1.386,.337-.162,1.373-.637,.83-2.683-.073-.277,.093-.561,.37-.634h0c.277-.073,.561,.092,.634,.37h0c.668,2.543-.633,3.538-1.458,3.902-.446,.188-.919,.302-1.401,.34Z" style="fill:#263238;"></path><path d="M314.397,304.537c-1.069,.064-2.132-.206-3.042-.77-.994-.477-1.74-1.355-2.05-2.413-.131-.636-.006-1.299,.348-1.843,.182-.216,.504-.246,.723-.068,.209,.186,.239,.502,.068,.723-.201,.304-.266,.679-.177,1.033,.269,.75,.828,1.36,1.552,1.691,2.492,1.434,3.91,.024,3.909,.012,.2-.206,.529-.21,.735-.01,.206,.2,.21,.529,.01,.735h0c-.582,.511-1.307,.829-2.077,.911Z" style="fill:#263238;"></path><path d="M358.129,293.419c-2.217-1.968-7.662-5.17-20.42-6.75,0,0,14.117-.463,20.43,4.769,.012,.689,.01,1.354-.01,1.981Z" style="isolation:isolate; opacity:.4;"></path><path d="M318.859,284.448c.03,.323-.588-13.506,4.328-21.939,.917-.086,1.83-.067,2.727-.086l.232-.022c-4.111,6.682-6.606,14.231-7.288,22.047Z" style="isolation:isolate; opacity:.4;"></path><path d="M334.746,267.419s7.088-12.779,15.436-17.665c5.293,8.611,6.68,19.065,3.814,28.758,0,0-6.087-.732-8.111-3.148,0,0,1.017-3.743,3.414-5.27-1.62,.642-3.057,1.672-4.187,2.998,0,0,.371-6.053,2.46-9.063,0,0-4.252,3.694-5.008,8.285-.074,.046-6.377-1.461-7.819-4.895Z" style="fill:#fff; isolation:isolate; opacity:.2;"></path><path d="M332.945,262.52c-.469,1.163-.844,2.361-1.123,3.583-1.044-1.009-1.775-2.297-2.106-3.711,1.191,.058,2.288,.085,3.23,.127Z" style="isolation:isolate; opacity:.2;"></path><path d="M303.09,276.585s3.946-4.877,6.267-6.384c0,0-2.239-3.464-3.072-3.725,1.255,.336,2.428,.927,3.445,1.736,0,0-.75-3.838-2.505-5.601,1.861,1.424,3.425,3.198,4.606,5.222l3.655-2.7c-2.982-6.555-8.071-11.925-14.456-15.255,0,0-3.926,17.186,2.059,26.708Z" style="fill:#fff; isolation:isolate; opacity:.2;"></path><path d="M297.325,286.387c1.429-3.093,3.049-6.095,4.851-8.987-.588-.96-1.072-1.98-1.444-3.043,4.708-5.365,12.625-7.631,12.625-7.631-6.441,5.577-11.865,12.23-16.031,19.661Z" style="isolation:isolate; opacity:.2;"></path><path d="M330.765,262.464c-.819,1.097-1.546,2.258-2.176,3.474-.498,.936-.908,1.916-1.224,2.928-.312,.98-.453,2.114-.891,3.145-.926,1.96-2.063,3.814-3.39,5.528-1.335,1.65-2.309,3.56-2.861,5.609,.466-2.083,1.366-4.045,2.639-5.758,1.246-1.75,2.297-3.631,3.135-5.609,.3-1.026,.546-2.066,.737-3.117,.283-1.066,.661-2.104,1.129-3.102,.518-1.088,1.102-2.143,1.749-3.16l.129-.012,1.023,.073Z" style="isolation:isolate; opacity:.4;"></path><path d="M317.209,276.148c.273,1.964,.359,3.949,.256,5.929-.003-1.976-.187-3.947-.552-5.889-.164-.986-.257-1.983-.279-2.983,.047-1.017,.275-2.018,.674-2.955,.348-.922,.643-1.863,.882-2.818,.32-.938,.718-1.847,1.191-2.717,.355-.659,.718-1.37,1.122-1.929l1.175-.11c-.565,.782-1.09,1.574-1.584,2.415-.495,.829-.915,1.701-1.254,2.606-.293,.9-.629,1.909-1.04,2.807-.437,.86-.704,1.796-.784,2.757,.007,.965,.071,1.929,.192,2.887Z" style="isolation:isolate; opacity:.4;"></path><path d="M356.338,301.142c-.159,.249-.343,.514-.551,.794-2.84-.938-5.558-2.215-8.094-3.801-1.839-1.072-3.431-2.521-4.671-4.252-1.174-1.75-3.125-2.821-5.232-2.871,2.154-.03,4.19,.983,5.465,2.719,1.278,1.635,2.892,2.976,4.732,3.934,2.633,1.491,5.437,2.658,8.35,3.477Z" style="isolation:isolate; opacity:.4;"></path><path d="M304.802,283.459c-1.198,.04-2.388,.217-3.546,.528-1.148,.309-2.256,.749-3.303,1.312l-.103,.01c.107-.245,.228-.49,.36-.75,.963-.386,1.96-.68,2.979-.878,1.192-.21,2.405-.284,3.614-.221Z" style="isolation:isolate; opacity:.4;"></path><path d="M304.166,288.352c-1.312,.479-2.475,1.293-3.374,2.361-.91,1.052-1.724,2.183-2.432,3.38-.399,.611-.77,1.232-1.13,1.838-.09-.265-.181-.543-.247-.824l.931-1.325c.803-1.161,1.703-2.252,2.691-3.261,.98-1.019,2.207-1.766,3.562-2.171Z" style="isolation:isolate; opacity:.4;"></path><polygon points="383.691 399.993 390.289 389.614 386.302 404.203 383.691 399.993" style="isolation:isolate; opacity:.2;"></polygon><g style="isolation:isolate; opacity:.4;"><path d="M380.798,337.386c-.976,2.079-1.952,4.158-2.928,6.238-1.185,2.523-2.375,5.057-3.914,7.382-2.349,3.549-5.451,6.525-8.525,9.468,3.704-.279,6.613-3.158,9.163-5.86,3.263-3.457,6.629-7.086,8.013-11.634l-1.809-5.594Z"></path></g><g style="isolation:isolate; opacity:.4;"><path d="M384.369,350.346c-.617,1.315-1.234,2.63-1.852,3.944-.749,1.596-1.502,3.198-2.475,4.668-1.485,2.244-3.446,4.126-5.39,5.987,2.342-.176,4.181-1.997,5.794-3.705,2.063-2.186,4.192-4.481,5.067-7.356l-1.144-3.537Z"></path></g><path d="M375.355,444.842c-1.401-1.069-2.54-2.448-3.237-4.098-.79-1.872-1.044-4.019-2.314-5.605-1.211-1.511-3.316-2.266-5.199-1.811-1.883,.455-3.427,2.123-3.679,4.043-.114,.869,.017,1.75,.188,2.609,.511,2.571,1.408,5.119,3.03,7.179,1.054,1.339,2.365,2.404,3.829,3.245,2.003-1.541,5.057-3.819,7.382-5.562Z" style="isolation:isolate; opacity:.4;"></path><path d="M401.861,414.44c-2.495-4.812-5.543-9.331-7.83-14.246-3.507-7.538-5.145-15.937-4.729-24.24l-10.568,9.213c.72,5.191,2.41,10.246,4.957,14.826,4.842,8.707,12.869,16.064,14.395,25.909,.487,3.141,.255,6.39-.673,9.43-1.639,5.373-5.754,10.178-11.175,11.652-5.421,1.474-11.937-1.064-14.12-6.24-.79-1.872-1.044-4.019-2.314-5.605-1.211-1.511-3.316-2.266-5.199-1.811-1.883,.455-3.427,2.123-3.678,4.043-.114,.869,.017,1.75,.188,2.609,.512,2.572,1.408,5.119,3.03,7.179,2.935,3.729,7.846,5.366,12.573,5.789,6.958,.622,14.202-1.075,19.825-5.219,5.623-4.144,9.46-10.813,9.641-17.796,.14-5.418-1.827-10.682-4.322-15.493Z" style="fill:#fff;"></path></g></g></g><g id="freepik--Dog--inject-111"><g><g><path d="M136.413,213.766c2.068,6.564,5.37,12.62,7.899,19.001,2.688,6.783,3.887,13.705,3.196,20.996-.702,7.399-2.941,14.57-5.293,21.585-2.118,6.318-4.479,12.524-4.22,19.3,.272,7.13,3.079,13.845,5.684,20.383,.353,.886,1.804,.5,1.446-.399-2.368-5.946-4.98-12.065-5.538-18.509-.601-6.936,1.669-13.235,3.847-19.699,2.314-6.866,4.496-13.828,5.395-21.042,.874-7.008,.202-13.906-2.151-20.568-2.578-7.299-6.489-14.053-8.818-21.448-.289-.918-1.738-.526-1.446,.399h0Z" style="fill:#263238;"></path><g><g><path d="M70.936,184.283c-15.145-22.831-10.011-47.119,8.187-59.187,18.198-12.068,42.564-7.34,57.735,15.436,14.487,21.863,16.575,54.405,.75,67.704,2.163,.546,4.048,1.876,5.288,3.731l-8.483,5.611c-1.229-1.862-1.717-4.116-1.368-6.32-18.456,9.47-47.621-5.113-62.108-26.975Z" style="fill:#E5A55A;"></path><path d="M138.347,208.646c.076-.167,.092-.354,.047-.532-.099-.455-.549-.744-1.004-.644h-.004c-.446,.104-4.506,1.035-5.192,3.617-.12,.455,.145,.922,.598,1.051,.45,.119,.912-.149,1.031-.6l.002-.007c.363-1.359,3.015-2.211,3.925-2.41,.263-.055,.485-.231,.597-.476Z" style="fill:#263238;"></path></g><path d="M70.936,184.283c-15.145-22.831-10.011-47.119,8.187-59.187,18.198-12.068,42.564-7.34,57.735,15.436,14.487,21.863,16.575,54.405,.75,67.704,2.163,.546,4.048,1.876,5.288,3.731l-8.483,5.611c-1.229-1.862-1.717-4.116-1.368-6.32-18.456,9.47-47.621-5.113-62.108-26.975Z" style="opacity:.3;"></path></g></g><g><path d="M146.059,313.298c-3.37-6.893-3.032-14.96-1.814-22.341,.736-4.46,1.842-8.86,2.778-13.282,.708-3.348,1.41-6.701,2.315-10.003,2.324-8.48,6.019-16.494,9.966-24.324,4.275-8.48,8.842-16.909,11.7-26.004,3.079-9.802,4.203-20.538,.776-30.404-.315-.906-1.764-.517-1.446,.399,6.63,19.086-3.706,38.192-12.116,54.838-3.935,7.789-7.66,15.753-10.066,24.165-.947,3.311-1.674,6.678-2.388,10.046-.937,4.423-2.029,8.827-2.814,13.28-1.424,8.079-1.886,16.822,1.813,24.388,.424,.867,1.718,.108,1.295-.757h0Z" style="fill:#263238;"></path><g><g><path d="M112.303,122.356c-4.08-34.045,15.327-58.305,42.461-61.552,27.134-3.247,51.709,15.75,55.849,49.748,3.89,32.592-12.092,70.143-37.266,76.102,2.111,1.828,3.469,4.375,3.811,7.146l-12.64,1.498c-.326-2.773,.398-5.568,2.028-7.834-25.96,.198-50.353-32.516-54.243-65.108Z" style="fill:#E5A55A;"></path><path d="M173.945,187.528c.178-.144,.302-.344,.351-.568,.145-.565-.195-1.14-.759-1.285h-.005c-.557-.137-5.619-1.381-7.838,1.119-.39,.441-.356,1.113,.077,1.511,.436,.387,1.103,.346,1.49-.09l.006-.006c1.171-1.314,4.615-.775,5.744-.484,.325,.087,.672,.014,.935-.197Z" style="fill:#263238;"></path></g><g style="opacity:.3;"><path d="M137.94,88.944c-2-8.312,4.348-18.215,16.099-22.273,4.982-1.25,12.273-.106,17.043,1.799,4.77,1.905,6.356,3.07,10.427,6.201,4.128,3.175,8.901,8.092,11.595,12.55,3.12,5.164,4.218,11.592,2.622,17.41-1.596,5.818-5.97,10.888-11.629,12.98-5.658,2.093-12.465,.996-16.952-3.036-2.893-2.6-4.703-6.155-6.831-9.411-2.128-3.256-4.858-6.435-8.593-7.521-3.029-.881-6.462-.298-9.233-1.806-2.491-1.356-3.884-4.136-4.548-6.893Z" style="fill:#fff;"></path></g></g><path d="M109.222,98.317c1.066-14.48,10.099-27.86,23.067-34.351,.863-.432,.105-1.726-.757-1.295-13.456,6.735-22.707,20.656-23.81,35.646-.071,.963,1.429,.959,1.5,0h0Z" style="fill:#E5A55A;"></path><path d="M136.686,61.846c.726-.197,1.451-.393,2.177-.59,.379-.103,.648-.538,.524-.923-.126-.388-.517-.634-.923-.524-.726,.197-1.451,.393-2.177,.59-.379,.103-.648,.538-.524,.923,.126,.388,.517,.634,.923,.524h0Z" style="fill:#E5A55A;"></path></g><g><path d="M160.243,366.414c-.104-6.079-1.386-12.396-5.191-17.139l-19.111,8.751c-3.279,3.433-5.872,7.717-6.42,12.432-.549,4.715,1.248,9.855,5.185,12.508-1.856,1.804-3.419,3.978-4.158,6.46-.738,2.481-.581,5.293,.769,7.501,.751,1.229,2.02,2.304,3.458,2.225,1.655-.091,2.818-1.597,3.817-2.919,5.238-6.931,12.202-12.374,17.733-19.074,1.414-1.714,2.757-3.555,3.398-5.682,.492-1.631,.549-3.36,.52-5.063Z" style="fill:#E5A55A;"></path><g style="opacity:.3;"><path d="M160.243,366.414c-.104-6.079-1.386-12.396-5.191-17.139l-19.111,8.751c-3.279,3.433-5.872,7.717-6.42,12.432-.549,4.715,1.248,9.855,5.185,12.508-1.856,1.804-3.419,3.978-4.158,6.46-.738,2.481-.581,5.293,.769,7.501,.751,1.229,2.02,2.304,3.458,2.225,1.655-.091,2.818-1.597,3.817-2.919,5.238-6.931,12.202-12.374,17.733-19.074,1.414-1.714,2.757-3.555,3.398-5.682,.492-1.631,.549-3.36,.52-5.063Z"></path></g><path d="M195.248,360.245c1.857,7.024,8.08,12.35,15.022,14.494,6.942,2.144,14.486,1.476,21.507-.395-3.654,5.527-10.173,9.041-16.799,9.056,2.366,.575,4.816,.803,7.248,.675-2.91,2.809-7.121,3.832-11.158,4.066-12.678,.735-22.936-7.526-22.936-23.296" style="fill:#E5A55A;"></path><path d="M176.444,291.259c5.229,33.203,35.77,79.73,9.805,90.709s-55.942,.95-56.634-36.943c-.473-25.873-1.1-34.258-5.455-43.795s52.285-9.97,52.285-9.97Z" style="fill:#E5A55A;"></path><path d="M152.98,330.596c-.916-.507-2.121-11.247,9.194-15.892,11.315-4.645,17.157-10.82,17.157-10.82,0,0-1.151-7.644-1.912-7.391-.761,.254-49.921,12.338-50.886,12.761-.965,.423,.462,2.819,.462,2.819,0,0,14.004,2.172,14.878,8.887s0,9.635,0,9.635h11.107Z" style="fill:#263238;"></path><path d="M139.722,255.072c-8.663,1.756-31.738,20.964-24.453,45.488,3.812,12.853,22.839,16.231,37.432,12.994,14.593-3.237,30.399-14.341,28.422-27.603-3.772-25.304-32.793-32.959-41.401-30.879Z" style="fill:#E5A55A;"></path><path d="M153.464,286.778c-5.615-1.504-7.001-13.443-9.08-21.35-.442-1.228-1.796-1.864-3.023-1.422-1.012,.365-1.65,1.367-1.552,2.438,1.465,8.041,5.253,19.444,.788,23.185-6.552,5.513-19.688,3.442-17.515,12.845,2.174,9.403,15.467,13.176,29.352,10.104,13.884-3.072,24.335-12.12,22.319-21.563s-12.986-2.04-21.287-4.237Z" style="fill:#fff;"></path><path d="M129.09,262.695c-3.237,3.465-33.384,2.276-40.881,8.395-7.497,6.119,9.183,26.713,36.117,15.381,9.017-12.845,4.765-23.776,4.765-23.776Z" style="fill:#E5A55A;"></path><path d="M125.522,271.39c-.693-4.237-29.706-4.284-36.298,2.449-5.962,6.096,9.387,14.822,15.491,15.089,9.679,.417,11.238-1.528,15.404-3.78,4.166-2.252,6.056-9.813,5.403-13.758Z" style="fill:#fff; isolation:isolate; opacity:.3;"></path><path d="M138.373,282.061c.364,2.29-.695,4.552-2.365,5.051-1.67,.499-3.319-.953-3.683-3.243-.363-2.285,.69-4.542,2.354-5.048,1.664-.512,3.315,.923,3.688,3.204l.006,.035Z" style="fill:#263238;"></path><path d="M145.486,256.222c6.3,0,21.106-25.595,30.407-28.265,11.403-3.284,17.68,26.776-10.112,39.92-15.144-4.182-20.295-11.656-20.295-11.656Z" style="fill:#E5A55A;"></path><path d="M152.818,262.451c-3.15-2.945,15.522-30.415,24.784-32.116,8.387-1.575,7.088,16.05,3.875,21.264-5.056,8.261-10.033,11.813-14.231,14.042-4.198,2.229-11.514-.441-14.428-3.19Z" style="fill:#fff; isolation:isolate; opacity:.3;"></path><path d="M151.571,279.872c.898,2.097,2.842,3.08,4.343,2.197,1.501-.884,1.99-3.299,1.093-5.396-.895-2.092-2.833-3.076-4.334-2.202-1.504,.876-2,3.289-1.107,5.389l.006,.013Z" style="fill:#263238;"></path><path d="M147.802,291.504c-4.127,.914-9.387,3.095-7.442,5.198,1.945,2.103,6.71,3.583,9.269,3.016,2.559-.567,6.245-3.938,7.088-6.655,.843-2.717-4.788-2.496-8.915-1.559Z" style="fill:#263238;"></path><rect x="149.583" y="299.657" width=".788" height="3.134" transform="translate(-61.687 39.638) rotate(-12.51)" style="fill:#263238;"></rect><path d="M137.712,302.134c3.189,2.153,11.038,5.515,14.817,3.929,3.779-1.586,6.898-9.535,7.6-13.319-2.95,10.127-14.282,13.5-22.418,9.39Z" style="fill:#263238;"></path><path d="M143.345,303.219c-.609-.146-1.017-.162-1.164,.447-.007,.03-.013,.061-.018,.092-.701,4.064-.638,9.167,6.166,8.49,5.812-.583,4.835-6.111,4.064-8.663-.175-.604-.803-.955-1.41-.788-1.134,.273-2.299,.395-3.465,.362-1.331,.044-2.868,.324-4.173,.06Z" style="fill:#E5A55A;"></path><path d="M146.904,309.255c-.409-.969-.315-4.725,0-6.174l.788,.157c-.307,1.575-.323,5.009,0,5.71l-.788,.307Z" style="fill:#263238; isolation:isolate; opacity:.3;"></path><path d="M148.168,303.653c-3.619,.56-8.1,.129-10.702-1.596-.611,.312-1.095,.826-1.369,1.455l-.748-.251c.369-.908,1.076-1.638,1.972-2.034l.207-.104,.189,.138c3.107,2.213,9.448,2.3,13.041,.899,3.593-1.4,8.202-5.755,8.987-9.495l.045-.222,.233-.036c.919-.31,1.922-.257,2.804,.148l-.38,.688c-.625-.275-1.325-.327-1.983-.147-.987,3.922-5.708,8.382-9.414,9.824-.932,.348-1.898,.593-2.883,.733Z" style="fill:#263238;"></path><path d="M134.098,325.503s36.745,13.917,45.754-19.83l4.678,13.419s-3.24,15.2-21.583,19.593c-27.428,6.568-39.027-4.392-39.027-4.392l10.177-8.79Z" style="fill:#263238;"></path><path d="M129.643,346.1s4.501-2.23,4.72-5.318c.219-3.088,0-4.769,0-4.769,0,0,5.161-11.43,4.431-12.785-.164-.305-9.223,12.473-9.37,12.912s.219,9.961,.219,9.961Z" style="opacity:.3;"></path><path d="M126.995,312.074c-5.174,4.513-10.34,20.72-8.749,25.776-4.631,6.867-2.867,10.199,3.41,9.994,6.277-.205,10.703-7.088,9.907-10.325-.795-3.237,9.45-11.561,7.033-17.964-1.835-4.851-7.97-10.655-11.6-7.482Z" style="fill:#E5A55A;"></path><path d="M122.104,348.246c-.084,0-.166-.024-.236-.071-1.181-.874-.614-4.158,.236-6.096,.065-.207,.286-.323,.494-.257,.207,.065,.323,.286,.257,.494-.009,.027-.02,.054-.035,.079-.929,2.142-1.063,4.725-.48,5.143,.174,.131,.209,.377,.079,.551-.074,.099-.191,.157-.315,.157Z" style="fill:#263238;"></path><path d="M117.615,347.639c-.114-.001-.223-.05-.299-.134-.929-1.047-.087-4.339,1.236-6.206,.126-.178,.373-.221,.551-.095s.221,.373,.094,.551c-1.252,1.756-1.835,4.615-1.292,5.229,.152,.149,.155,.394,.006,.546l-.006,.005c-.078,.074-.184,.111-.291,.102Z" style="fill:#263238;"></path><path d="M158.748,321.484c-3.15,6.088-1.097,16.606,2.218,20.756-1.819,8.08,1.806,12.627,7.587,10.154,5.78-2.473,9.186-11.515,7.265-14.24-1.922-2.725-3.132-16.057-7.503-18.852-4.371-2.796-7.33-2.095-9.567,2.181Z" style="opacity:.3;"></path><path d="M159.872,318.665c-3.15,6.088-.323,18.688,2.993,22.839-1.819,8.08,1.032,10.545,6.812,8.072,5.78-2.473,7.395-10.49,5.473-13.215-1.922-2.725,1.961-17.247-2.41-20.043-4.371-2.796-10.632-1.93-12.868,2.347Z" style="fill:#E5A55A;"></path><path d="M170.095,349.805h-.102c-1.418-.386-2.079-3.654-2-5.765,.023-.21,.198-.372,.41-.378,.217,.008,.386,.192,.378,.409h0c-.087,2.363,.724,4.789,1.418,4.978,.206,.053,.331,.263,.279,.469l-.003,.011c-.052,.165-.205,.277-.378,.276Z" style="fill:#263238;"></path><path d="M165.692,350.868c-.063,0-.126-.016-.181-.047-1.252-.638-1.662-4.016-1.103-6.229,.05-.207,.258-.335,.465-.285l.007,.002c.21,.051,.341,.262,.291,.472-.528,2.095,0,4.969,.693,5.34,.196,.095,.278,.33,.183,.526-.066,.136-.204,.223-.356,.222h0Z" style="fill:#263238;"></path><g style="opacity:.3;"><path d="M190.756,369.073c-.09-5.246-1.196-10.697-4.479-14.789l-16.491,7.551c-2.829,2.962-5.066,6.659-5.54,10.727-.473,4.069,1.077,8.504,4.474,10.793-.926,.9-1.766,1.906-2.435,3.008h9.332l11.757-8.019c1.221-1.479,2.379-3.067,2.933-4.903,.424-1.407,.474-2.899,.448-4.369Z"></path></g><path d="M196.697,366.414c-.104-6.079-1.386-12.396-5.191-17.139l-19.111,8.751c-3.279,3.433-5.872,7.717-6.42,12.432-.549,4.715,1.248,9.855,5.185,12.508-1.856,1.804-3.419,3.978-4.158,6.46-.738,2.481-.581,5.293,.769,7.501,.751,1.229,2.02,2.304,3.458,2.225,1.655-.091,2.818-1.597,3.817-2.919,5.238-6.931,12.202-12.374,17.733-19.074,1.414-1.714,2.757-3.555,3.398-5.682,.492-1.631,.549-3.36,.52-5.063Z" style="fill:#E5A55A;"></path><path d="M191.595,378.597s3.823-3.572,4.971-14.911l2.546,3.812s1.688,8.481-4.983,14.466c-1.065-.978-1.876-2.123-2.534-3.368Z" style="opacity:.3;"></path><path d="M156.271,276.441c.193,.577,.088,1.133-.234,1.24-.322,.107-.739-.273-.932-.851-.193-.577-.088-1.133,.234-1.24,.322-.108,.739,.273,.932,.851Z" style="fill:#fff;"></path><path d="M137.11,281.711c.146,.591-.003,1.136-.333,1.217-.329,.081-.715-.332-.861-.923-.146-.591,.003-1.136,.333-1.217,.329-.081,.715,.332,.861,.923Z" style="fill:#fff;"></path></g></g></g></svg>
