<svg width="27" height="28" viewBox="0 0 27 28" fill="none" xmlns="http://www.w3.org/2000/svg">
<path d="M24.3184 21.9626C26.0231 20.3759 26.9884 18.261 26.9884 16.0663C26.9884 13.7339 25.9429 11.5526 24.0444 9.92383C22.1966 8.33915 19.7509 7.46631 17.1573 7.46631C14.5638 7.46631 12.118 8.33915 10.2705 9.92395C8.37201 11.5526 7.32648 13.7339 7.32648 16.0663C7.32648 18.3987 8.37201 20.5801 10.2705 22.2088C12.118 23.7936 14.5638 24.6664 17.1573 24.6664C17.5029 24.6664 17.8506 24.6505 18.1954 24.6188L18.7845 25.152C20.8139 26.9885 23.4091 27.9995 26.0944 27.9996H26.9881V26.013L26.7264 25.7397C25.6938 24.6582 24.8756 23.3746 24.3184 21.9626ZM19.9551 23.7413L18.7731 22.6714L18.379 22.7219C17.9737 22.7736 17.5657 22.7996 17.1573 22.7996C12.7223 22.7996 9.1139 19.7791 9.1139 16.0663C9.1139 12.3536 12.7223 9.33298 17.1573 9.33298C21.5923 9.33298 25.2007 12.3535 25.2007 16.0663C25.2007 17.9161 24.3171 19.643 22.7125 20.9289L22.1978 21.3414L22.4353 22.0434C22.922 23.4772 23.6374 24.8147 24.5513 25.9994C22.8494 25.7027 21.259 24.9214 19.9551 23.7413Z" fill="white"/>
<path d="M2.6448 17.5861C3.48138 16.4802 4.13823 15.2382 4.58907 13.9098L4.82478 13.2112L4.31051 12.799C2.79746 11.5865 1.96418 9.95913 1.96418 8.21666C1.96418 4.71526 5.37196 1.86667 9.56073 1.86667C12.6422 1.86667 15.301 3.40842 16.4913 5.6175C16.7123 5.6063 16.9343 5.6 17.1573 5.6C17.6051 5.6 18.0489 5.62269 18.4886 5.66808C18.0286 4.42353 17.2297 3.28743 16.1314 2.34535C14.3685 0.832942 12.0352 0 9.56073 0C7.08627 0 4.75301 0.832942 2.98994 2.34535C1.17582 3.90163 0.176758 5.98675 0.176758 8.21666C0.176758 10.305 1.09013 12.3172 2.70429 13.8308C2.17752 15.1547 1.40782 16.3582 0.438559 17.3734L0.176758 17.6467V19.6H1.07047C2.72311 19.5998 4.35303 19.1979 5.83122 18.426C5.66913 17.7845 5.57415 17.1264 5.54797 16.4634C4.65078 17.0126 3.66808 17.3926 2.6448 17.5861Z" fill="white"/>
</svg>
