<svg width="27" height="26" viewBox="0 0 27 26" fill="none" xmlns="http://www.w3.org/2000/svg">
<path d="M13.5249 7.82013e-05L0.700031 10.3876V12.6925L13.5249 2.30267L26.3498 12.6925V10.3876L13.5249 7.82013e-05ZM13.5249 3.59788L3.36494 11.8267V25.8301H8.58373C8.58928 24.0143 8.62815 21.3609 9.15003 19.028C9.43873 17.7519 9.86622 16.5601 10.5602 15.655C11.2598 14.7443 12.2646 14.1372 13.5249 14.1372C14.7852 14.1372 15.7901 14.7443 16.4896 15.655C17.1836 16.5601 17.6111 17.7519 17.8998 19.028C18.4217 21.3609 18.4606 24.0143 18.4661 25.8301H23.6849V11.8267L13.5249 3.59788Z" fill="white"/>
</svg>
