<svg width="23" height="25" viewBox="0 0 23 25" fill="none" xmlns="http://www.w3.org/2000/svg">
<path d="M11.3976 12.5C14.8453 12.5 17.6395 9.70215 17.6395 6.25C17.6395 2.79785 14.8453 0 11.3976 0C7.94997 0 5.15576 2.79785 5.15576 6.25C5.15576 9.70215 7.94997 12.5 11.3976 12.5ZM15.7669 14.0625H14.9526C13.87 14.5605 12.6655 14.8438 11.3976 14.8438C10.1297 14.8438 8.93014 14.5605 7.84269 14.0625H7.02832C3.40999 14.0625 0.474365 17.002 0.474365 20.625V22.6562C0.474365 23.9502 1.5228 25 2.81506 25H19.9802C21.2724 25 22.3209 23.9502 22.3209 22.6562V20.625C22.3209 17.002 19.3853 14.0625 15.7669 14.0625Z" fill="white"/>
</svg>
