<svg width="43" height="41" viewBox="0 0 43 41" fill="none" xmlns="http://www.w3.org/2000/svg">
<path d="M21.5 0C9.98263 0 0.646484 9.17788 0.646484 20.5C0.646484 31.8221 9.98263 41 21.5 41C33.0173 41 42.3535 31.8221 42.3535 20.5C42.3535 9.17788 33.0173 0 21.5 0ZM28.4195 29.5597C28.0915 29.8804 27.7476 30.2168 27.4684 30.4921C27.217 30.7401 27.0396 31.0459 26.9496 31.3774C26.8227 31.8453 26.7201 32.3181 26.5485 32.7719L25.0863 36.6446C23.9292 36.8926 22.7318 37.0323 21.5 37.0323V34.769C21.6421 33.7258 20.8576 31.7717 19.5971 30.5326C19.0926 30.0366 18.8092 29.3638 18.8092 28.662V26.016C18.8092 25.0538 18.282 24.1693 17.4251 23.704C16.2168 23.0468 14.4981 22.1284 13.3209 21.5457C12.3555 21.0679 11.4626 20.4595 10.6595 19.7478L10.5923 19.6883C10.018 19.1787 9.50813 18.6031 9.07365 17.9739C8.28492 16.8356 7.00007 14.9633 6.16509 13.7466C7.88634 9.98548 10.9883 6.96504 14.8428 5.32421L16.8618 6.31698C17.7564 6.75673 18.8092 6.11776 18.8092 5.13409V4.20002C19.4811 4.09339 20.1647 4.0256 20.8601 3.99998L23.2397 6.33929C23.7653 6.85593 23.7653 7.69329 23.2397 8.20992L22.8454 8.59677L21.9759 9.45149C21.7136 9.7094 21.7136 10.1285 21.9759 10.3864L22.3703 10.7741C22.6326 11.032 22.6326 11.4511 22.3703 11.709L21.6976 12.3703C21.5713 12.4942 21.4001 12.5638 21.2216 12.5637H20.4657C20.2908 12.5637 20.1226 12.6306 19.9965 12.7513L19.1624 13.549C19.0601 13.6469 18.9921 13.7742 18.9683 13.9125C18.9444 14.0508 18.9658 14.193 19.0295 14.3186L20.3404 16.8968C20.5641 17.3366 20.2387 17.854 19.7392 17.854H19.2649C19.1027 17.854 18.9463 17.7962 18.8243 17.692L18.044 17.0257C17.8674 16.8752 17.654 16.7723 17.4248 16.7274C17.1955 16.6825 16.9583 16.697 16.7365 16.7695L14.1155 17.6283C13.9154 17.6939 13.7414 17.8198 13.618 17.988C13.4947 18.1562 13.4284 18.3584 13.4285 18.5657C13.4285 18.9402 13.6438 19.2816 13.9843 19.4494L14.916 19.9073C15.7072 20.2967 16.5801 20.4992 17.4647 20.4992C18.3492 20.4992 19.3642 22.755 20.1554 23.1443H25.7682C26.4821 23.1443 27.1657 23.4229 27.6711 23.9189L28.8222 25.0505C29.3031 25.5234 29.5732 26.1648 29.5731 26.8335C29.573 27.3402 29.471 27.8419 29.273 28.3097C29.075 28.7776 28.7849 29.2024 28.4195 29.5597ZM35.7106 22.0086C35.2238 21.8887 34.7991 21.5953 34.5208 21.1844L33.0089 18.9551C32.7877 18.6293 32.6696 18.2465 32.6696 17.8548C32.6696 17.4632 32.7877 17.0803 33.0089 16.7546L34.6562 14.326C34.8512 14.0392 35.1186 13.8061 35.4331 13.6523L36.5246 13.1159C37.6614 15.3411 38.3173 17.8441 38.3173 20.5C38.3173 21.2167 38.2551 21.9185 38.1643 22.6112L35.7106 22.0086Z" fill="white"/>
</svg>
